<?xml version="1.0" encoding="iso-8859-1"?>
<!-- Generator: Adobe Illustrator 18.1.1, SVG Export Plug-In . SVG Version: 6.00 Build 0)  -->
<svg version="1.1" id="Capa_1" xmlns="http://www.w3.org/2000/svg" xmlns:xlink="http://www.w3.org/1999/xlink" x="0px" y="0px"
	 viewBox="0 0 30.858 30.858" style="enable-background:new 0 0 30.858 30.858;" xml:space="preserve">
<g>
	<path d="M3.408,6.12c0.539,0,0.975-0.434,0.975-0.969c0-0.543-0.436-0.975-0.975-0.975c-0.535,0-0.971,0.432-0.971,0.975
		C2.438,5.687,2.873,6.12,3.408,6.12z"/>
	<path d="M6.334,6.12c0.535,0,0.975-0.434,0.975-0.969c0-0.543-0.439-0.975-0.975-0.975c-0.539,0-0.977,0.432-0.977,0.975
		C5.357,5.687,5.795,6.12,6.334,6.12z"/>
	<path d="M9.316,6.12c0.533,0,0.971-0.434,0.971-0.969c0-0.543-0.438-0.975-0.971-0.975c-0.539,0-0.977,0.432-0.977,0.975
		C8.34,5.687,8.777,6.12,9.316,6.12z"/>
	<path d="M22.922,12.271c0.838,0,1.643,0.131,2.402,0.373V7.605H1.951v16.537h14.088c-0.668-1.162-1.057-2.502-1.057-3.936
		C14.982,15.831,18.547,12.271,22.922,12.271z"/>
	<path d="M26.955,25.198c-0.43,0.35-0.904,0.641-1.416,0.867C26.131,26.001,26.643,25.677,26.955,25.198z"/>
	<path d="M27.271,13.577V4.663c0-1.076-0.875-1.949-1.947-1.949H1.951C0.873,2.714,0,3.587,0,4.663v19.479
		c0,1.074,0.873,1.947,1.951,1.947h15.662c1.408,1.273,3.266,2.055,5.309,2.055c4.375,0,7.936-3.559,7.936-7.938
		C30.857,17.437,29.426,14.997,27.271,13.577z M9.316,4.177c0.533,0,0.971,0.432,0.971,0.975c0,0.535-0.438,0.969-0.971,0.969
		c-0.539,0-0.977-0.434-0.977-0.969C8.34,4.609,8.777,4.177,9.316,4.177z M6.334,4.177c0.535,0,0.975,0.432,0.975,0.975
		c0,0.535-0.439,0.969-0.975,0.969c-0.539,0-0.977-0.434-0.977-0.969C5.357,4.609,5.795,4.177,6.334,4.177z M3.408,4.177
		c0.539,0,0.975,0.432,0.975,0.975c0,0.535-0.436,0.969-0.975,0.969c-0.535,0-0.971-0.434-0.971-0.969
		C2.438,4.609,2.873,4.177,3.408,4.177z M1.951,24.142V7.605h23.373v5.039c-0.76-0.242-1.564-0.373-2.402-0.373
		c-4.375,0-7.939,3.561-7.939,7.936c0,1.434,0.389,2.773,1.057,3.936H1.951V24.142z M26.955,25.198
		c-0.312,0.479-0.824,0.803-1.416,0.867c-0.799,0.361-1.686,0.566-2.617,0.566c-0.914,0-1.785-0.197-2.574-0.543
		c-0.986-0.436-1.84-1.107-2.494-1.947c-0.846-1.088-1.357-2.451-1.357-3.936c0-3.543,2.883-6.424,6.426-6.424
		c0.848,0,1.66,0.17,2.402,0.471c0.727,0.293,1.383,0.719,1.947,1.238c1.271,1.174,2.072,2.852,2.072,4.715
		C29.344,22.224,28.41,24.025,26.955,25.198z"/>
	<path d="M25.469,23.835c-0.09,0-0.182-0.021-0.264-0.064l-2.139-1.127l-2.137,1.127c-0.191,0.1-0.424,0.082-0.598-0.045
		c-0.176-0.131-0.266-0.344-0.229-0.557l0.41-2.381l-1.729-1.682c-0.156-0.152-0.213-0.381-0.145-0.586
		c0.064-0.203,0.244-0.357,0.459-0.387l2.389-0.348l1.068-2.164c0.191-0.389,0.832-0.389,1.021,0l1.068,2.164l2.391,0.348
		c0.213,0.029,0.391,0.184,0.457,0.387c0.068,0.205,0.012,0.434-0.145,0.586l-1.729,1.682l0.412,2.381
		c0.035,0.213-0.053,0.426-0.23,0.557C25.705,23.798,25.588,23.835,25.469,23.835z M20.406,19.095l1.117,1.09
		c0.135,0.129,0.193,0.318,0.164,0.504l-0.264,1.537l1.379-0.725c0.164-0.092,0.365-0.092,0.529,0l1.381,0.725l-0.264-1.537
		c-0.031-0.186,0.029-0.375,0.164-0.504l1.119-1.09l-1.547-0.225c-0.184-0.027-0.344-0.145-0.426-0.314l-0.693-1.398l-0.689,1.398
		c-0.08,0.17-0.244,0.287-0.43,0.314L20.406,19.095z"/>
	<g>
	</g>
	<g>
	</g>
	<g>
	</g>
	<g>
	</g>
	<g>
	</g>
	<g>
	</g>
	<g>
	</g>
	<g>
	</g>
	<g>
	</g>
	<g>
	</g>
	<g>
	</g>
	<g>
	</g>
	<g>
	</g>
	<g>
	</g>
	<g>
	</g>
</g>
<g>
</g>
<g>
</g>
<g>
</g>
<g>
</g>
<g>
</g>
<g>
</g>
<g>
</g>
<g>
</g>
<g>
</g>
<g>
</g>
<g>
</g>
<g>
</g>
<g>
</g>
<g>
</g>
<g>
</g>
</svg>
