<svg width="200" height="200" viewBox="0 0 200 200" fill="none" xmlns="http://www.w3.org/2000/svg">
<path d="M100 200C155.228 200 200 155.228 200 100C200 44.7715 155.228 0 100 0C44.7715 0 0 44.7715 0 100C0 155.228 44.7715 200 100 200Z" fill="#C4EBE9"/>
<path opacity="0.6" d="M198.229 118.748L197.679 118.351L152.58 81.9544C152.03 81.5574 65.832 140.275 65.832 140.275C64.9465 141.527 64.6717 142.84 65.2213 143.237C65.2213 143.237 120.58 183.023 129.099 189.008L135.481 193.466C167.542 181.344 191.695 153.161 198.229 118.748Z" fill="#9BBDBB"/>
<path d="M112.367 140.611C112.367 142.229 111.206 143.817 109.557 143.817H66.7482C65.0993 143.817 63.8169 142.229 63.8169 140.611V84.2443C63.8169 82.626 65.0993 81.2214 66.7482 81.2214H109.557C111.206 81.2214 112.367 82.5955 112.367 84.2443V140.611Z" fill="#98A2D1"/>
<path d="M153.893 140.611C153.893 142.229 152.275 143.817 150.595 143.817H107.786C106.137 143.817 105.344 142.229 105.344 140.611V84.2446C105.344 82.6263 106.137 81.2217 107.786 81.2217H150.595C152.244 81.2217 153.893 82.5957 153.893 84.2446V140.611Z" fill="#98A2D1"/>
<path d="M114.809 141.771C114.809 144.947 111.939 147.481 108.703 147.481H108.611C105.374 147.481 103.176 144.947 103.176 141.771V136.061C103.176 132.886 105.374 130.076 108.611 130.076H108.703C111.939 130.076 114.809 132.886 114.809 136.061V141.771Z" fill="#887DBA"/>
<path opacity="0.5" d="M150.229 84.2749H66.8704V141.069H150.229V84.2749Z" fill="#FCFCFB"/>
<path d="M108.672 136.946C94.1069 132.855 83.8474 132.855 69.2825 136.946C69.2825 118.931 69.2825 100.946 69.2825 82.9312C83.8779 76.5495 94.0458 76.7327 108.672 82.9312C108.672 100.946 108.672 118.931 108.672 136.946Z" fill="white"/>
<path d="M108.702 137.405H148.58L148.397 83.3589L108.702 83.4505V137.405Z" fill="#98A2D1"/>
<path d="M108.489 136.946C123.054 132.855 133.313 132.855 147.878 136.946C147.878 118.931 147.878 100.946 147.878 82.9312C133.283 76.5495 123.115 76.7327 108.489 82.9312C108.489 100.946 108.458 118.931 108.489 136.946Z" fill="#FFF3D3"/>
<path d="M110.382 134.076C123.542 130.382 132.794 130.382 145.954 134.076C145.954 117.832 145.954 101.588 145.954 85.313C132.794 79.5725 123.603 79.7252 110.382 85.313C110.382 101.588 110.382 117.832 110.382 134.076Z" fill="#FFF3D3" stroke="#BC2028" stroke-width="1.1825" stroke-miterlimit="10"/>
<path d="M108.702 137.191C108.702 137.191 121.527 120.916 147.176 115.176V63.3894C147.176 63.3894 121.527 63.3894 108.702 83.4199V137.191Z" fill="white"/>
<path d="M108.855 134.412C108.855 134.412 120.153 119.695 142.137 114.473V67.603C142.137 67.603 120.763 67.603 108.855 85.7404V134.412Z" stroke="#ED8E22" stroke-miterlimit="10"/>
<path d="M108.702 137.191V83.6339C108.702 83.6339 103.054 80.2751 96.2139 79.4812C96.2139 79.4812 104.122 80.672 108.702 137.191Z" fill="#FFF3D3"/>
<path d="M106.565 133.771C93.5573 130.107 84.4275 130.107 71.4199 133.771C71.4199 117.71 71.4199 101.649 71.4199 85.5877C84.4275 79.9084 93.5268 80.061 106.565 85.5877C106.565 101.649 106.565 117.71 106.565 133.771Z" stroke="#ED8E22" stroke-width="1.1687" stroke-miterlimit="10"/>
</svg>
