<svg width="200" height="200" viewBox="0 0 200 200" fill="none" xmlns="http://www.w3.org/2000/svg">
<path d="M100 200C155.228 200 200 155.228 200 100C200 44.7715 155.228 0 100 0C44.7715 0 0 44.7715 0 100C0 155.228 44.7715 200 100 200Z" fill="#C4EBE9"/>
<path opacity="0.6" d="M198.626 116.626L134.473 69.1877C133.924 68.7906 130.137 70.0124 129.252 71.2343L76.519 145.768C75.6335 147.02 75.3587 148.334 75.9083 148.731C75.9083 148.731 123.847 183.218 137.374 192.809C169.13 180.041 192.824 151.358 198.626 116.626Z" fill="#9BBDBB"/>
<path d="M75.1755 146.592C75.1755 148.456 76.519 150.014 78.5343 150.014H132.458C134.473 150.014 136.214 148.425 136.214 146.592V80.1843C136.214 78.321 134.473 76.8242 132.458 76.8242H78.5343C76.519 76.8242 75.1755 78.321 75.1755 80.1843V146.592Z" fill="#F7941E"/>
<path d="M130.443 140.056H75.2978C75.1146 139.659 75.0229 139.201 75.0229 138.742V72.4564C75.0229 70.532 76.5802 68.9741 78.5039 68.9741H132.733C134.657 68.9741 136.214 70.532 136.214 72.4564V138.712C136.214 140.636 134.657 142.194 132.733 142.194H130.412V140.056H130.443Z" fill="#F15E22"/>
<path opacity="0.8" d="M78.5344 70.0737H103.053V141.125H75.2978C75.1146 140.728 75.0229 140.27 75.0229 139.811V73.5255C75.0229 71.6316 76.6107 70.0737 78.5344 70.0737Z" fill="white"/>
<path d="M129.771 69.0044H132.733C134.656 69.0044 136.214 70.5623 136.214 72.4867V146.47C136.214 148.395 134.656 149.953 132.733 149.953H129.771V69.0044Z" fill="#4C0049"/>
<path d="M77.4045 140.056H130.443C132.458 140.056 134.107 141.675 134.107 143.691C134.107 145.707 132.458 147.326 130.443 147.326H77.4045V140.056Z" fill="white"/>
<path d="M121.435 81.834H84.6414V84.0333H121.435V81.834Z" fill="white"/>
<path d="M114.992 78.4131H91.1145V80.0015H114.992V78.4131Z" fill="#FBB040"/>
<path d="M121.435 128.387H84.6414V130.586H121.435V128.387Z" fill="white"/>
<path d="M114.992 124.965H91.1145V126.554H114.992V124.965Z" fill="#FBB040"/>
<path fill-rule="evenodd" clip-rule="evenodd" d="M109.069 111.708C108.946 111.556 108.855 111.25 108.794 111.036C108.458 109.539 109.282 109.234 109.771 109.631C110.015 109.814 110.32 110.486 110.229 110.975C110.168 111.342 109.404 111.617 109.069 111.708ZM103.908 101.353C104.244 100.803 104.091 100.04 104.275 99.673C104.488 100.07 104.733 99.9784 104.794 99.9173C105.13 99.673 104.794 99.2148 104.458 99.2453C103.847 99.337 104.153 100.131 103.939 100.65C103.695 100.223 103.481 99.8868 103.267 99.7035C102.748 99.2453 102.504 99.8257 102.717 100.131C102.87 100.345 103.175 100.253 103.328 100.345C103.481 100.498 103.756 100.803 103.908 101.353ZM99.3892 100.589C99.7556 100.04 99.6334 99.2759 99.8166 98.9093C100.03 99.3064 100.244 99.2148 100.336 99.1842C100.702 98.9399 100.366 98.4817 100.03 98.5122C99.4197 98.5733 99.6945 99.3675 99.4502 99.8868C99.206 99.4286 99.0227 99.1231 98.809 98.9093C98.3205 98.4206 98.0457 99.001 98.2289 99.3064C98.351 99.5202 98.6869 99.4591 98.8395 99.5508C99.0228 99.7035 99.267 100.04 99.3892 100.589ZM96.8548 97.6874C96.8548 97.6874 96.7021 97.9013 96.58 97.9318C96.0304 98.0235 96.58 96.6489 96.6411 96.3434C95.1449 98.3595 97.0075 99.0926 96.8548 97.6874ZM99.2365 97.382C99.4197 98.8177 97.5266 98.054 99.0533 96.0379C98.9922 96.3434 98.4121 97.718 98.9922 97.6264C99.0533 97.5958 99.2365 97.382 99.2365 97.382ZM103.42 96.4045C103.42 96.4045 103.298 96.6183 103.236 96.6489C102.778 96.7711 103.114 95.5797 103.114 95.3048C102.046 97.1376 103.695 97.5653 103.42 96.4045ZM109.374 99.2148C109.374 99.2148 109.252 99.4286 109.16 99.4591C108.672 99.6119 109.007 98.2984 109.038 98.0235C107.939 100.009 109.71 100.437 109.374 99.2148ZM104.244 104.652C104.244 104.652 104.091 104.866 104 104.866C103.481 104.927 104.061 103.705 104.122 103.43C102.656 105.202 104.366 105.966 104.244 104.652ZM107.023 102.819C107.023 102.819 106.901 103.064 106.809 103.094C106.29 103.247 106.656 101.842 106.687 101.536C105.435 103.675 107.389 104.163 107.023 102.819ZM111.817 105.049C111.817 105.049 111.664 105.263 111.572 105.294C111.023 105.385 111.572 104.041 111.633 103.736C110.168 105.691 112 106.424 111.817 105.049ZM116.275 105.721C116.275 105.721 116.122 105.935 116.03 105.966C115.481 106.057 116.03 104.713 116.091 104.408C114.595 106.393 116.458 107.126 116.275 105.721ZM111.847 111.708C111.847 111.708 111.695 111.922 111.603 111.922C111.053 111.983 111.603 110.792 111.633 110.517C110.168 112.289 112.03 112.961 111.847 111.708ZM109.435 115.557C109.435 115.557 109.313 115.771 109.221 115.802C108.702 115.954 109.069 114.671 109.099 114.396C107.878 116.321 109.801 116.748 109.435 115.557ZM97.2823 115.802C97.2823 115.802 97.1602 116.015 97.0991 116.015C96.6411 116.168 96.9159 115.038 96.9159 114.793C95.9388 116.565 97.6487 116.871 97.2823 115.802ZM93.0075 112.289C93.0075 112.289 92.8548 112.472 92.7632 112.472C92.2747 112.533 92.8243 111.433 92.8853 111.189C91.4808 112.747 93.0991 113.449 93.0075 112.289ZM97.038 113.052C97.3739 112.533 97.2212 111.8 97.4044 111.433C97.6182 111.8 97.8319 111.708 97.893 111.678C98.2289 111.433 97.893 111.006 97.5876 111.036C97.0075 111.128 97.2823 111.861 97.0685 112.38C96.8243 111.953 96.6411 111.647 96.4273 111.464C95.9388 111.006 95.6945 111.586 95.9082 111.861C96.0304 112.075 96.3357 111.983 96.4884 112.075C96.6716 112.228 96.9159 112.533 97.038 113.052ZM111.389 100.895C111.572 100.895 111.603 100.925 111.664 101.078C111.725 101.322 111.603 101.353 111.572 101.353C111.45 101.231 111.359 101.139 111.389 100.895ZM114.626 99.7952L115.206 100.986C115.359 101.353 115.572 101.903 115.542 102.331L115.023 101.872C114.87 104.194 115.298 106.546 115.084 109.326C115.023 110.242 114.931 110.975 114.412 111.617C114.382 110.609 114.504 109.539 114.504 108.531C114.534 106.332 114.412 103.339 114.32 101.078C114.29 100.345 114.076 100.742 114.626 99.7952ZM108.824 106.638C109.007 106.485 109.16 106.21 109.343 105.996C109.588 106.088 109.832 106.424 110.015 106.576L110.259 106.79C110.351 106.699 110.443 106.607 110.534 106.515C110.626 106.393 110.717 106.302 110.84 106.21C111.114 106.302 111.633 106.974 111.725 107.126C110.992 108.257 110.962 107.523 110.29 107.004L109.74 107.554C109.496 107.462 109.16 107.157 109.007 106.974C108.916 106.821 108.885 106.699 108.824 106.638ZM96.3052 105.599C96.4579 105.904 96.7327 106.24 97.1296 106.454C97.3128 106.332 97.5266 106.088 97.7403 105.904C97.954 106.027 98.2289 106.454 98.5037 106.638C98.809 106.576 99.0838 106.24 99.1754 105.996C99.0533 105.813 98.5037 105.141 98.2899 105.08C98.0762 105.202 98.0762 105.355 97.7098 105.66C97.4655 105.538 97.2212 105.11 96.8548 104.896C96.6716 105.049 96.4579 105.416 96.3052 105.599ZM96.7632 94.2662C97.1907 94.2052 97.7098 94.0219 98.1678 93.8997L101.007 93.1971C101.557 93.0444 102.046 93.0138 102.259 92.5862C101.801 92.6167 98.5953 93.4109 97.954 93.5942C97.7098 93.6553 97.5266 93.7164 97.2823 93.808C97.0686 93.8997 96.8853 94.0524 96.7632 94.2662ZM94.5037 100.956C94.5647 100.895 94.7174 100.925 94.7785 100.986C94.8701 101.078 94.809 101.2 94.809 101.322C94.6563 101.261 94.351 101.078 94.5037 100.956ZM95.3586 110.761C95.3892 110.884 95.7861 111.464 95.3892 111.403C95.3586 111.403 95.267 111.342 95.2365 111.311C94.9006 111.006 95.1143 110.609 95.3586 110.395C95.664 110.15 97.4655 109.753 97.9846 109.601C98.3205 109.509 99.0533 109.234 99.3281 109.234C99.206 109.753 98.1067 109.937 97.435 110.12C97.0686 110.212 96.7327 110.303 96.3663 110.425C96.0609 110.486 95.664 110.67 95.3586 110.761ZM106.656 117.084C106.534 116.535 106.29 116.168 106.107 116.046C105.954 115.954 105.649 116.015 105.496 115.771C105.282 115.466 105.588 114.855 106.076 115.374C106.259 115.588 106.473 115.924 106.717 116.382C106.992 115.863 106.717 115.038 107.328 114.977C107.664 114.946 108 115.435 107.633 115.649C107.572 115.679 107.328 115.771 107.114 115.374C106.931 115.771 107.053 116.535 106.656 117.084ZM101.191 111.342C101.16 111.097 101.191 110.975 101.282 110.731C101.588 110.7 101.893 110.884 101.924 111.25C101.679 111.342 101.527 111.494 101.191 111.342ZM95.0228 106.424C95.4808 105.171 96.3052 107.34 95.3281 106.424C95.3281 106.424 95.267 106.363 95.2365 106.485C95.0838 107.035 95.0227 107.615 94.7479 108.104C94.6869 108.012 94.3815 107.187 94.2289 107.187C93.5876 107.096 93.4044 106.576 93.893 106.363C94.4121 106.21 94.6258 107.249 94.809 107.371C94.9006 107.065 94.9311 106.668 95.0228 106.424ZM106.229 96.6489C106.412 96.6489 106.504 96.6794 106.626 96.7711C107.114 97.1682 106.473 97.4125 106.107 97.1682L106.229 96.6489ZM106.382 111.189C106.504 111.158 106.626 111.067 106.717 111.006C106.992 110.853 107.328 110.822 107.481 110.7C107.725 110.517 107.572 110.273 107.328 110.425C106.565 110.884 106.473 110.089 106.901 110.089C107.481 110.089 107.114 109.509 106.504 109.998C106.107 110.334 106.504 110.517 106.565 110.792C106.443 110.975 106.382 110.853 106.168 111.189H106.382ZM92.7632 108.501C92.7632 108.501 92.58 108.715 92.4884 108.715C91.9388 108.776 92.5495 107.554 92.6105 107.279C91.0838 109.02 92.8853 109.784 92.7632 108.501ZM105.862 106.302C106.076 106.271 106.595 106.027 106.84 105.935C107.45 105.691 107.511 105.752 107.633 105.385C107.298 105.446 106.931 105.63 106.626 105.752C105.893 106.088 105.985 105.935 105.862 106.302ZM104.702 90.845C96.7937 89.9286 89.6792 95.6103 88.7632 103.491C87.8472 111.403 93.5266 118.52 101.404 119.437C109.313 120.353 116.427 114.671 117.343 106.79C118.259 98.8788 112.611 91.7614 104.702 90.845ZM104.611 91.6698C97.1907 90.8145 90.4426 96.1601 89.5876 103.583C88.7327 111.006 94.0762 117.756 101.496 118.612C108.916 119.467 115.664 114.121 116.519 106.699C117.374 99.2453 112.03 92.5251 104.611 91.6698ZM106.229 96.2518C106.046 96.4961 105.924 96.9238 105.924 97.2598C105.924 97.6264 106.32 97.6874 106.656 97.5347C107.359 97.1987 107.114 96.2518 106.229 96.2518ZM101.282 110.303C101.191 110.578 100.977 111.036 100.946 111.372C100.916 111.769 101.404 111.861 101.71 111.708C102.504 111.342 102.229 110.486 101.282 110.303ZM94.5037 101.781C94.1983 102.178 92.7327 103.339 92.2747 103.644C91.9998 103.827 91.725 104.011 91.4808 104.224C91.7861 104.133 92.122 103.919 92.3663 103.766C93.1602 103.308 93.3739 103.216 94.0151 102.636C94.1678 102.514 94.2289 102.453 94.351 102.3C94.4121 102.208 94.4426 102.178 94.5342 102.117C94.5953 102.056 94.5647 102.086 94.6258 102.025L94.7479 101.933C94.9922 102.117 94.9617 102.239 95.2059 102.361C95.2976 101.964 95.1754 101.75 94.9311 101.567C94.9617 101.322 95.0838 100.864 95.0533 100.681C94.9311 100.253 94.0151 100.498 94.1372 101.261C94.1983 101.536 94.351 101.628 94.5037 101.781ZM110.809 103.705C110.748 104.774 110.626 105.141 110.259 106.057C110.259 106.057 110.259 106.027 110.229 106.027C110.168 106.118 110.259 104.744 110.259 104.56C110.259 104.072 110.229 103.613 110.168 103.125C109.771 103.247 109.343 103.613 108.824 103.705C108.977 103.491 109.893 102.911 110.137 102.758C110.229 101.109 110.076 98.4511 109.985 96.6794C109.954 95.9768 109.771 95.3965 110.32 94.9077L110.351 94.9688C110.717 95.5492 111.114 96.8627 111.175 97.5347L110.656 97.046L110.84 102.178C111.023 102.117 111.206 101.872 111.298 101.72C111.206 101.536 110.992 101.17 111.023 100.956C111.114 100.437 112.091 100.131 111.939 101.139C111.908 101.475 111.786 101.414 111.664 102.056C111.481 102.117 111.542 101.903 111.236 102.239C111.114 102.361 110.962 102.453 110.87 102.544C110.717 102.728 110.84 103.4 110.809 103.705ZM101.221 108.44C101.496 108.379 101.527 108.623 101.527 108.837C101.282 108.806 101.16 108.654 101.221 108.44ZM90.7479 108.837C90.8395 108.134 91.1449 107.462 91.5418 106.882C91.9998 106.21 91.6334 106.76 93.1296 106.057C94.6258 105.355 96.9769 103.247 98.2289 102.941C98.3205 103.033 98.5037 103.216 98.6563 103.339C99.4197 104.102 100.916 105.66 100.946 106.76C100.672 106.851 100.214 107.126 99.6029 107.31C96.5189 108.287 95.4502 107.982 92.7327 110.12C91.664 111.006 90.6258 109.937 90.7479 108.837ZM93.2212 98.2678C94.0151 98.8177 96.9159 101.72 97.4655 102.086C97.0686 102.758 92.0609 106.088 90.9006 105.538C90.5953 105.385 90.5037 105.202 90.3815 104.896C90.1067 104.011 90.6869 103.003 91.1754 102.3C91.7556 101.414 91.6334 101.964 92.3968 101.231C92.58 101.048 92.8243 100.742 92.8548 100.467C92.4273 100.559 92.3357 101.017 92.0609 100.773C91.8777 100.589 91.9693 99.9784 92.0609 99.7341C92.3052 99.2453 92.8548 98.6038 93.2212 98.2678ZM90.809 106.057C91.0838 106.271 91.2365 106.302 91.3892 106.424C91.2976 106.638 91.0838 106.974 90.9617 107.187C90.5037 108.043 90.1067 109.02 90.5342 109.967C90.9311 110.822 91.8777 111.464 92.7632 110.945C92.9464 110.853 93.3434 110.548 93.496 110.548C93.3128 112.014 93.435 113.083 94.2899 113.877C95.2365 114.763 96.6411 114.641 98.0457 114.702C98.3815 116.351 98.9617 118.215 101.16 116.687C101.679 116.321 102.229 115.802 102.717 115.374L103.389 114.793C104.305 114.152 104.977 113.877 106.168 113.511C106.595 113.388 108.366 112.839 108.702 112.869C108.794 113.052 108.855 113.205 108.916 113.358L109.343 113.969C110.046 114.732 111.756 114.396 112.244 113.877C113.282 112.777 113.069 110.761 113.007 109.234C112.946 107.585 112.977 105.904 112.946 104.224C112.946 103.43 112.885 102.514 112.916 101.75C112.946 100.895 112.916 99.9784 113.007 99.1537C113.191 99.337 113.191 99.5202 113.466 99.6119C113.435 99.1842 113.313 98.6649 113.16 98.2678L112.611 97.0765C112.488 97.382 112.244 97.5042 112.244 97.9013C112.275 101.567 112.427 105.232 112.458 108.929C112.458 109.417 112.519 112.839 112.427 113.022C112.183 113.419 109.862 114.091 109.282 112.625C109.374 112.503 109.557 112.411 109.679 112.319C111.633 110.822 110.443 107.859 109.099 108.745C108.824 108.929 108.611 109.173 108.458 109.57C108.122 110.425 108.305 111.158 108.366 111.983C108.214 112.105 107.145 112.411 106.809 112.502C104.824 113.052 103.817 113.358 102.32 114.763C98.7479 118.429 98.0456 115.038 98.4731 114.58C98.6563 114.396 103.939 113.572 103.817 110.884C103.786 110.181 103.145 109.051 103.206 108.623C103.481 108.684 103.45 108.867 103.786 108.806C103.725 108.623 103.603 108.562 103.511 108.409L102.626 107.279C102.412 107.401 102.382 107.554 102.29 107.798C102.198 108.104 102.229 108.134 102.32 108.409C102.656 109.356 103.053 110.273 103.298 111.25C103.42 111.708 102.931 111.8 102.595 112.044C102.443 112.166 102.29 112.228 102.107 112.319C101.74 112.503 101.435 112.625 101.038 112.808C100.488 113.052 99.267 113.48 98.7174 113.572C98.809 112.961 99.1754 112.441 99.5418 112.075C100.427 111.158 99.9693 111.525 99.6334 110.792C100.03 110.7 100.702 110.15 101.007 109.876C101.16 109.753 101.252 109.601 101.435 109.57C101.557 109.753 101.496 109.814 101.74 109.845C101.954 109.601 101.801 109.448 101.649 109.326C101.74 108.745 101.954 108.44 101.588 108.043C101.191 107.951 101.007 108.226 100.885 108.531C100.702 109.112 100.977 109.051 101.13 109.326C100.885 109.662 100.549 109.906 100.244 110.15C99.4808 110.761 99.664 110.67 99.206 110.578C98.2899 111.22 98.6869 111.189 99.1754 111.892C99.0533 112.228 98.5037 113.083 98.2594 113.541C97.9846 114.091 95.725 113.785 94.8395 113.236C94.0762 112.777 93.7403 112.014 93.7403 111.128C93.7403 110.456 93.7098 110.334 94.1983 109.967C96.0914 108.562 98.2899 108.929 100.122 108.012C100.427 107.859 100.855 107.615 101.007 107.248C101.435 106.149 100.946 104.835 100.183 103.98C100.091 103.888 100.153 104.011 100.122 103.888C99.8166 103.125 103.695 107.523 104.336 107.982C104.488 108.104 105.007 108.379 105.099 108.47C105.221 108.684 105.099 110.822 105.069 111.311C105.038 111.617 104.946 112.014 104.977 112.319C104.977 112.289 105.282 111.739 105.343 111.586C105.557 110.975 105.679 110.303 105.771 109.631C105.801 109.295 105.801 108.929 105.862 108.593C106.351 108.318 107.847 108.44 108.275 106.821C108.458 106.057 108.275 104.102 108.275 103.216C108.244 101.414 108.153 99.6119 108.122 97.8096C108.122 97.1682 108.091 96.6183 108.183 95.9463C108.275 96.0074 108.366 96.1296 108.458 96.1907C108.58 96.2823 108.58 96.3129 108.702 96.4045C108.824 95.9158 108.061 94.3273 107.878 93.8997C107.42 94.2968 107.481 95.0605 107.542 95.6714C107.603 96.2823 107.603 96.9543 107.633 97.5958C107.695 100.528 107.817 103.491 107.847 106.424C107.847 106.882 107.939 107.035 107.603 107.248C107.084 107.554 106.595 107.676 105.893 107.493L105.801 100.07C105.985 100.192 106.137 100.406 106.29 100.498C106.32 99.9173 105.679 98.2373 105.404 97.9929C105.13 98.5122 105.099 98.3289 105.099 99.062C105.099 101.781 105.282 104.56 105.16 107.279C104.58 107.065 103.633 106.027 103.175 105.507C102.504 104.774 100.336 102.728 100.122 102.453C101.069 102.239 102.046 102.361 102.901 103.003C103.145 103.186 103.328 103.4 103.511 103.522C103.633 103.308 103.695 102.972 103.695 102.697C103.695 102.3 103.603 102.331 103.328 102.117C102.107 101.078 101.893 99.7341 101.924 98.1456L102.351 98.3595C102.32 98.1151 101.771 96.6489 101.588 96.4961C100.549 98.2067 101.74 100.314 101.588 101.445C100.549 101.261 99.8472 101.384 99.0227 101.628C98.9006 101.567 98.809 101.445 98.6563 101.353L94.9922 98.2984C94.5647 97.9318 94.1067 97.5653 93.6487 97.1987L93.7098 97.1682C94.7174 96.4045 104.122 94.083 105.771 94.6633C106.137 94.7855 106.229 95.2437 105.924 95.5492C105.313 96.1907 103.328 97.4125 103.145 98.39C103.359 98.2373 103.542 98.0235 103.756 97.8402C103.908 97.718 103.939 97.6874 104.061 97.5653C104.183 97.4431 104.244 97.4431 104.366 97.3514L105.343 96.4961C105.374 96.4656 105.374 96.4656 105.404 96.435C105.466 96.374 105.466 96.3739 105.557 96.3129C105.862 96.0074 106.32 95.4881 106.534 94.9994C106.84 94.2968 106.656 93.7775 105.862 93.6553C103.969 93.3804 94.9311 95.5797 93.6487 96.435C93.1602 96.7405 93.1907 97.9624 93.0991 98.2067C93.0991 98.2067 92.1525 99.1842 92.0304 99.3675C91.6945 99.7952 91.3586 100.314 91.3281 100.956C91.3281 101.322 91.4808 101.567 91.2976 101.811C90.2289 102.85 89.2212 104.835 90.809 106.057Z" fill="white"/>
</svg>
