<svg width="200" height="200" viewBox="0 0 200 200" fill="none" xmlns="http://www.w3.org/2000/svg">
<path d="M100 200C155.228 200 200 155.228 200 100C200 44.7715 155.228 0 100 0C44.7715 0 0 44.7715 0 100C0 155.228 44.7715 200 100 200Z" fill="#C4EBE9"/>
<path opacity="0.6" d="M53.0686 138.535L127.206 196.244C160.58 186.84 186.87 160.55 196.275 127.176L141.985 77.4048L53.0686 138.535Z" fill="#9BBDBB"/>
<path d="M98.6869 102.443C98.6869 102.443 96.7938 100.855 99.4197 97.6489C102.046 94.4427 136.366 75.542 136.366 75.542C136.366 75.542 137.374 77.2825 138.687 77.8626C140 78.4428 141.466 78.4428 141.466 78.4428L98.6869 102.443Z" fill="white"/>
<path d="M138.29 75.0232L95.1145 99.9698L95.4198 100.153L138.504 75.2675C138.443 75.2064 138.351 75.1148 138.29 75.0232Z" fill="#E3E0D0"/>
<path d="M138.992 75.6951L96.0305 100.519L96.3359 100.703L139.267 75.9088C139.176 75.8172 139.084 75.7561 138.992 75.6951Z" fill="#E3E0D0"/>
<path d="M139.908 76.2451L96.9465 101.039L97.2519 101.222L140.244 76.3978C140.153 76.3367 140.03 76.3062 139.908 76.2451Z" fill="#E3E0D0"/>
<path d="M141.038 76.6716L97.8931 101.588L98.1984 101.771L141.435 76.8243C141.282 76.7632 141.16 76.7022 141.038 76.6716Z" fill="#E3E0D0"/>
<path d="M142.259 77.0383L98.8396 102.107L99.1449 102.29L142.687 77.1605C142.534 77.0994 142.382 77.0689 142.259 77.0383Z" fill="#E3E0D0"/>
<path d="M143.45 77.4355L99.7556 102.657L100.061 102.84L143.756 77.6188C143.664 77.5272 143.542 77.4661 143.45 77.4355Z" fill="#E3E0D0"/>
<path d="M144.275 78.0154L100.702 103.176L101.007 103.359L144.458 78.2597C144.397 78.1986 144.336 78.107 144.275 78.0154Z" fill="#E3E0D0"/>
<path d="M97.3128 102.443C97.3128 102.443 99.206 100.855 96.58 97.6486C93.9541 94.4425 59.6334 75.5417 59.6334 75.5417C59.6334 75.5417 58.6258 77.2822 57.3128 77.8624C55.9998 78.4425 54.5342 78.4425 54.5342 78.4425L97.3128 102.443Z" fill="white"/>
<path d="M57.6793 75.0229L100.885 99.9695L100.58 100.153L57.4961 75.2672C57.5572 75.2062 57.6182 75.1146 57.6793 75.0229Z" fill="#E3E0D0"/>
<path d="M56.9769 75.6946L99.9388 100.519L99.6335 100.702L56.7021 75.9083C56.7938 75.8167 56.8853 75.7556 56.9769 75.6946Z" fill="#E3E0D0"/>
<path d="M56.061 76.2444L99.0228 101.038L98.7175 101.221L55.7251 76.3971C55.8472 76.336 55.9694 76.3055 56.061 76.2444Z" fill="#E3E0D0"/>
<path d="M54.9619 76.6714L98.107 101.587L97.8016 101.771L54.5649 76.8241C54.6871 76.763 54.8397 76.7019 54.9619 76.6714Z" fill="#E3E0D0"/>
<path d="M53.7405 77.0391L97.1603 102.108L96.855 102.291L53.313 77.1612C53.4657 77.1001 53.5878 77.0696 53.7405 77.0391Z" fill="#E3E0D0"/>
<path d="M52.5492 77.4353L96.2439 102.657L95.9385 102.84L52.2134 77.588C52.3355 77.5269 52.4271 77.4658 52.5492 77.4353Z" fill="#E3E0D0"/>
<path d="M51.7252 78.0151L95.2976 103.175L94.9923 103.359L51.542 78.2594C51.6031 78.1983 51.6641 78.1067 51.7252 78.0151Z" fill="#E3E0D0"/>
<path d="M141.985 77.4353H140.794L103.481 99.0842L105.16 99.3284L141.985 77.4353Z" fill="#876C73"/>
<path d="M142.26 138.626L103.695 161.13L103.42 99.9086L141.985 77.4353L142.26 138.626Z" fill="#4C0049"/>
<path d="M138.076 134.473L107.817 152.122L107.603 104.092L137.863 86.4121L138.076 134.473Z" stroke="#BFE0E5" stroke-width="1.4689" stroke-miterlimit="10"/>
<path d="M136.763 133.191L109.099 149.344L108.885 105.374L136.58 89.2214L136.763 133.191Z" stroke="#BFE0E5" stroke-width="1.3438" stroke-miterlimit="10"/>
<path d="M129.374 136.58L117.099 143.756V141.435L129.374 134.26V136.58Z" fill="#B6CAE0"/>
<path d="M53.3433 77.313H54.5341L91.8471 98.9924L90.5341 99.4504L53.3433 77.313Z" fill="#8F528F"/>
<path d="M53.0686 138.534L91.6335 161.038L91.9083 99.8168L53.3434 77.313L53.0686 138.534Z" fill="#8F528F"/>
<path d="M90.8701 99.206L91.6335 98.8701C91.6335 98.8701 94.4732 101.038 98.0152 100.916C101.588 100.794 103.481 99.0839 103.481 99.0839L104.55 99.206C104.55 99.206 102.137 101.832 99.6335 102.29C97.1297 102.748 92.6411 101.313 91.9693 101.099C91.2976 100.885 90.8701 99.206 90.8701 99.206Z" fill="#A2B1AF"/>
<path d="M104.55 160.641C100.458 163.603 94.9617 163.603 90.8701 160.641C90.8701 140.153 90.8701 119.695 90.8701 99.2061C94.9617 102.168 100.458 102.168 104.55 99.2061C104.55 119.695 104.55 140.153 104.55 160.641Z" fill="#00AEEF"/>
<path d="M104.55 156.458C100.458 159.42 94.9617 159.42 90.8701 156.458C90.8701 155.481 90.8701 154.504 90.8701 153.557C94.9617 156.519 100.458 156.519 104.55 153.557C104.55 154.534 104.55 155.512 104.55 156.458Z" fill="white"/>
<path d="M104.55 133.069C100.458 136.031 94.9617 136.031 90.8701 133.069C90.8701 132.092 90.8701 131.115 90.8701 130.168C94.9617 133.13 100.458 133.13 104.55 130.168C104.55 131.115 104.55 132.092 104.55 133.069Z" fill="white"/>
<path d="M104.55 105.985C100.458 108.947 94.9617 108.947 90.8701 105.985C90.8701 105.008 90.8701 104.031 90.8701 103.084C94.9617 106.046 100.458 106.046 104.55 103.084C104.55 104.031 104.55 105.008 104.55 105.985Z" fill="white"/>
<path opacity="0.7" d="M97.71 101.435V162.87C100.092 162.87 102.504 162.137 104.55 160.641C104.55 140.153 104.55 119.695 104.55 99.2061C102.504 100.672 100.122 101.435 97.71 101.435Z" fill="#EF4136"/>
<path fill-rule="evenodd" clip-rule="evenodd" d="M125.71 125.344C125.649 125.191 125.618 124.916 125.588 124.733C125.435 123.328 125.771 123.023 125.985 123.389C126.076 123.573 126.229 124.214 126.168 124.641C126.168 125.008 125.863 125.252 125.71 125.344ZM123.572 115.634C123.725 115.115 123.634 114.382 123.725 114.046C123.817 114.412 123.908 114.321 123.939 114.29C124.092 114.046 123.939 113.618 123.786 113.679C123.542 113.771 123.664 114.504 123.572 115.023C123.45 114.595 123.389 114.321 123.298 114.137C123.084 113.679 122.992 114.26 123.084 114.534C123.145 114.748 123.267 114.657 123.328 114.748C123.389 114.809 123.511 115.115 123.572 115.634ZM121.71 114.901C121.863 114.382 121.801 113.679 121.893 113.313C121.985 113.679 122.076 113.618 122.107 113.557C122.259 113.313 122.107 112.886 121.985 112.916C121.74 112.977 121.863 113.74 121.74 114.229C121.649 113.802 121.557 113.496 121.466 113.313C121.252 112.855 121.16 113.405 121.221 113.71C121.282 113.924 121.405 113.863 121.466 113.954C121.557 114.076 121.649 114.382 121.71 114.901ZM120.641 112.183C120.641 112.183 120.58 112.397 120.519 112.428C120.305 112.519 120.519 111.206 120.55 110.931C119.939 112.794 120.733 113.496 120.641 112.183ZM121.618 111.878C121.679 113.221 120.916 112.519 121.527 110.595C121.496 110.87 121.282 112.183 121.496 112.092C121.557 112.092 121.618 111.878 121.618 111.878ZM123.359 110.962C123.359 110.962 123.298 111.145 123.267 111.176C123.084 111.298 123.206 110.168 123.206 109.924C122.779 111.664 123.481 112.061 123.359 110.962ZM125.801 113.588C125.801 113.588 125.74 113.802 125.71 113.832C125.496 113.954 125.649 112.763 125.649 112.489C125.221 114.321 125.954 114.748 125.801 113.588ZM123.725 118.718C123.725 118.718 123.664 118.901 123.634 118.931C123.42 118.992 123.664 117.832 123.695 117.557C123.084 119.237 123.756 119.939 123.725 118.718ZM124.855 116.977C124.855 116.977 124.794 117.221 124.763 117.221C124.55 117.374 124.702 116.031 124.702 115.756C124.214 117.802 125.008 118.26 124.855 116.977ZM126.84 119.084C126.84 119.084 126.779 119.298 126.748 119.298C126.534 119.389 126.748 118.107 126.779 117.832C126.137 119.695 126.901 120.397 126.84 119.084ZM128.672 119.695C128.672 119.695 128.611 119.908 128.58 119.908C128.366 120 128.58 118.718 128.611 118.443C127.969 120.336 128.733 121.008 128.672 119.695ZM126.87 125.344C126.87 125.344 126.809 125.527 126.779 125.557C126.565 125.618 126.779 124.489 126.779 124.244C126.168 125.893 126.931 126.534 126.87 125.344ZM125.893 128.947C125.893 128.947 125.832 129.16 125.801 129.191C125.588 129.313 125.74 128.122 125.74 127.878C125.252 129.71 126.046 130.107 125.893 128.947ZM120.885 129.221C120.885 129.221 120.855 129.405 120.794 129.435C120.611 129.588 120.702 128.519 120.702 128.275C120.336 129.924 121.038 130.229 120.885 129.221ZM119.114 125.893C119.114 125.893 119.053 126.076 119.023 126.076C118.809 126.137 119.053 125.099 119.084 124.855C118.504 126.351 119.176 126.992 119.114 125.893ZM120.794 126.626C120.916 126.137 120.855 125.466 120.946 125.13C121.038 125.466 121.13 125.405 121.16 125.374C121.282 125.16 121.16 124.733 121.038 124.794C120.794 124.886 120.916 125.588 120.824 126.046C120.733 125.649 120.641 125.374 120.55 125.191C120.336 124.763 120.244 125.313 120.336 125.557C120.397 125.74 120.519 125.679 120.58 125.771C120.611 125.863 120.733 126.137 120.794 126.626ZM126.656 115.176C126.718 115.176 126.748 115.206 126.779 115.328C126.809 115.542 126.748 115.573 126.748 115.573C126.656 115.481 126.626 115.389 126.656 115.176ZM127.969 114.137L128.214 115.237C128.275 115.573 128.366 116.092 128.366 116.489L128.153 116.061C128.092 118.26 128.275 120.458 128.183 123.084C128.153 123.939 128.122 124.611 127.908 125.252C127.878 124.305 127.939 123.298 127.939 122.351C127.939 120.275 127.878 117.466 127.847 115.328C127.847 114.657 127.756 115.023 127.969 114.137ZM125.618 120.58C125.679 120.428 125.771 120.183 125.832 120C125.924 120.092 126.046 120.397 126.107 120.519L126.198 120.702C126.229 120.611 126.259 120.519 126.29 120.428C126.321 120.305 126.382 120.214 126.412 120.153C126.534 120.214 126.748 120.886 126.779 121.008C126.473 122.076 126.473 121.374 126.198 120.886L125.985 121.405C125.893 121.313 125.74 121.008 125.679 120.855C125.649 120.763 125.618 120.641 125.618 120.58ZM120.458 119.634C120.519 119.908 120.641 120.244 120.794 120.428C120.855 120.305 120.947 120.061 121.038 119.908C121.13 120.031 121.252 120.428 121.343 120.611C121.466 120.55 121.588 120.244 121.618 120.031C121.557 119.847 121.343 119.237 121.252 119.176C121.16 119.298 121.16 119.42 121.008 119.695C120.916 119.573 120.794 119.176 120.641 118.992C120.611 119.115 120.519 119.45 120.458 119.634ZM120.611 108.977C120.794 108.916 121.008 108.763 121.191 108.641L122.351 107.969C122.565 107.847 122.779 107.786 122.87 107.389C122.687 107.42 121.374 108.183 121.099 108.336C121.008 108.397 120.916 108.458 120.824 108.519C120.733 108.611 120.641 108.763 120.611 108.977ZM119.695 115.237C119.725 115.176 119.786 115.206 119.817 115.267C119.847 115.359 119.847 115.45 119.817 115.573C119.756 115.542 119.634 115.359 119.695 115.237ZM120.092 124.458C120.092 124.58 120.275 125.13 120.092 125.038C120.092 125.038 120.03 124.977 120.03 124.947C119.908 124.672 119.969 124.275 120.092 124.092C120.214 123.878 120.947 123.481 121.16 123.328C121.313 123.237 121.588 122.992 121.71 122.962C121.679 123.45 121.221 123.603 120.916 123.786C120.763 123.878 120.641 123.969 120.488 124.061C120.366 124.214 120.214 124.366 120.092 124.458ZM124.763 130.412C124.702 129.893 124.611 129.557 124.519 129.435C124.458 129.344 124.336 129.405 124.275 129.191C124.183 128.886 124.305 128.336 124.519 128.824C124.611 129.008 124.672 129.313 124.794 129.771C124.916 129.282 124.794 128.519 125.038 128.458C125.191 128.428 125.313 128.886 125.16 129.099C125.13 129.13 125.038 129.221 124.946 128.824C124.855 129.16 124.916 129.893 124.763 130.412ZM122.504 125.008C122.504 124.763 122.504 124.672 122.534 124.428C122.656 124.397 122.779 124.55 122.809 124.916C122.687 125.038 122.626 125.16 122.504 125.008ZM119.939 120.397C120.122 119.237 120.458 121.252 120.061 120.397C120.061 120.397 120.03 120.336 120.03 120.458C119.969 120.977 119.939 121.527 119.847 121.985C119.817 121.924 119.695 121.13 119.634 121.099C119.359 121.038 119.298 120.519 119.511 120.305C119.725 120.183 119.817 121.13 119.878 121.252C119.878 121.008 119.908 120.641 119.939 120.397ZM124.519 111.176C124.611 111.176 124.641 111.176 124.672 111.298C124.855 111.664 124.611 111.908 124.458 111.664L124.519 111.176ZM124.611 124.855C124.672 124.824 124.702 124.733 124.763 124.702C124.885 124.58 125.008 124.519 125.069 124.397C125.16 124.214 125.099 124 125.008 124.153C124.702 124.58 124.641 123.847 124.824 123.847C125.069 123.847 124.916 123.298 124.672 123.756C124.519 124.061 124.672 124.244 124.702 124.519C124.641 124.672 124.641 124.58 124.55 124.916L124.611 124.855ZM119.023 122.351C119.023 122.351 118.962 122.534 118.901 122.565C118.687 122.626 118.931 121.466 118.962 121.191C118.321 122.84 119.053 123.573 119.023 122.351ZM124.397 120.275C124.488 120.244 124.702 120.031 124.794 119.939C125.038 119.725 125.069 119.756 125.13 119.42C124.977 119.481 124.824 119.634 124.733 119.756C124.397 120.061 124.427 119.939 124.397 120.275ZM123.847 105.71C120.611 104.855 117.679 110.198 117.343 117.649C117.008 125.069 119.359 131.786 122.595 132.641C125.832 133.496 128.763 128.153 129.099 120.702C129.466 113.282 127.114 106.565 123.847 105.71ZM123.817 106.504C120.763 105.71 118.015 110.748 117.679 117.74C117.343 124.733 119.572 131.053 122.626 131.847C125.679 132.641 128.427 127.603 128.763 120.611C129.099 113.618 126.87 107.298 123.817 106.504ZM124.488 110.809C124.427 111.053 124.366 111.45 124.366 111.756C124.366 112.092 124.519 112.183 124.672 112.031C124.977 111.695 124.855 110.809 124.488 110.809ZM122.534 124.031C122.504 124.305 122.412 124.733 122.412 125.038C122.412 125.435 122.595 125.496 122.718 125.344C123.023 125.008 122.901 124.214 122.534 124.031ZM119.695 116.031C119.572 116.397 118.992 117.496 118.779 117.802C118.656 117.985 118.534 118.137 118.473 118.351C118.595 118.26 118.717 118.076 118.84 117.924C119.145 117.496 119.237 117.405 119.511 116.855C119.572 116.733 119.603 116.672 119.664 116.519C119.695 116.428 119.695 116.397 119.725 116.336C119.756 116.275 119.725 116.305 119.756 116.244L119.817 116.153C119.908 116.336 119.908 116.428 120 116.55C120.03 116.183 119.969 115.969 119.878 115.786C119.878 115.573 119.939 115.115 119.908 114.931C119.847 114.534 119.481 114.779 119.542 115.481C119.572 115.786 119.634 115.878 119.695 116.031ZM126.412 117.832C126.382 118.84 126.351 119.176 126.198 120.031V120C126.168 120.092 126.198 118.779 126.198 118.626C126.198 118.168 126.198 117.71 126.168 117.282C126.015 117.405 125.832 117.74 125.618 117.832C125.679 117.649 126.046 117.069 126.137 116.947C126.168 115.389 126.107 112.886 126.046 111.237C126.015 110.595 125.954 110.015 126.168 109.588L126.198 109.649C126.351 110.198 126.504 111.42 126.565 112.061L126.351 111.603L126.443 116.428C126.534 116.366 126.595 116.153 126.626 116C126.595 115.817 126.504 115.481 126.504 115.298C126.534 114.809 126.931 114.534 126.87 115.481C126.84 115.786 126.809 115.756 126.779 116.336C126.687 116.397 126.748 116.214 126.595 116.489C126.534 116.611 126.473 116.672 126.443 116.794C126.382 116.916 126.412 117.527 126.412 117.832ZM122.504 122.29C122.626 122.229 122.626 122.473 122.626 122.657C122.534 122.657 122.473 122.473 122.504 122.29ZM118.168 122.657C118.198 121.985 118.321 121.374 118.473 120.794C118.656 120.153 118.504 120.702 119.114 120C119.725 119.328 120.672 117.374 121.191 117.069C121.221 117.16 121.313 117.313 121.374 117.435C121.679 118.168 122.321 119.603 122.321 120.641C122.229 120.733 122.015 121.008 121.771 121.16C120.519 122.076 120.061 121.802 118.962 123.817C118.565 124.733 118.137 123.695 118.168 122.657ZM119.176 112.733C119.511 113.252 120.702 115.97 120.946 116.305C120.794 116.947 118.748 120.092 118.259 119.542C118.137 119.389 118.076 119.237 118.046 118.931C117.924 118.107 118.168 117.16 118.351 116.489C118.595 115.664 118.534 116.183 118.84 115.481C118.901 115.298 119.023 115.023 119.023 114.748C118.84 114.84 118.809 115.267 118.687 115.053C118.595 114.87 118.656 114.29 118.687 114.076C118.779 113.649 119.023 113.038 119.176 112.733ZM118.198 120.061C118.321 120.275 118.382 120.305 118.443 120.397C118.412 120.611 118.321 120.916 118.29 121.13C118.107 121.924 117.954 122.87 118.137 123.756C118.29 124.55 118.687 125.16 119.053 124.672C119.114 124.58 119.298 124.305 119.359 124.305C119.298 125.679 119.328 126.687 119.695 127.42C120.092 128.244 120.672 128.122 121.221 128.183C121.374 129.74 121.618 131.511 122.504 130.046C122.717 129.71 122.931 129.191 123.145 128.794L123.42 128.244C123.786 127.634 124.061 127.389 124.55 127.023C124.733 126.901 125.435 126.382 125.588 126.412C125.618 126.565 125.649 126.718 125.679 126.87L125.863 127.45C126.168 128.153 126.87 127.878 127.053 127.359C127.481 126.321 127.389 124.428 127.359 122.992C127.328 121.435 127.328 119.878 127.328 118.29C127.328 117.527 127.298 116.702 127.298 115.969C127.298 115.176 127.298 114.29 127.328 113.527C127.389 113.71 127.42 113.863 127.511 113.954C127.481 113.557 127.45 113.069 127.389 112.702L127.145 111.573C127.084 111.847 126.992 111.969 126.992 112.336C127.023 115.786 127.084 119.237 127.114 122.687C127.114 123.145 127.145 126.351 127.114 126.534C127.023 126.931 126.076 127.542 125.832 126.168C125.863 126.046 125.954 125.954 125.985 125.863C126.779 124.458 126.29 121.649 125.74 122.504C125.618 122.687 125.557 122.901 125.496 123.267C125.374 124.092 125.435 124.763 125.466 125.557C125.405 125.679 124.977 125.954 124.824 126.046C124 126.565 123.603 126.87 122.992 128.183C121.527 131.634 121.252 128.428 121.405 128C121.466 127.817 123.634 127.053 123.572 124.489C123.572 123.817 123.298 122.779 123.328 122.382C123.45 122.443 123.42 122.595 123.572 122.565C123.542 122.382 123.511 122.351 123.45 122.199L123.084 121.13C122.992 121.252 122.992 121.374 122.962 121.618C122.931 121.893 122.931 121.924 122.962 122.199C123.084 123.084 123.267 123.939 123.359 124.886C123.42 125.313 123.206 125.405 123.084 125.618C123.023 125.71 122.962 125.802 122.901 125.893C122.748 126.076 122.626 126.198 122.473 126.351C122.259 126.595 121.74 126.992 121.527 127.053C121.557 126.473 121.71 125.985 121.863 125.649C122.229 124.794 122.046 125.13 121.893 124.428C122.046 124.336 122.321 123.817 122.473 123.542C122.534 123.42 122.565 123.267 122.656 123.237C122.717 123.389 122.687 123.481 122.779 123.511C122.87 123.267 122.809 123.145 122.748 123.023C122.779 122.473 122.87 122.199 122.718 121.832C122.565 121.74 122.473 121.985 122.443 122.29C122.351 122.84 122.473 122.779 122.534 123.023C122.443 123.328 122.29 123.573 122.168 123.817C121.863 124.397 121.924 124.305 121.74 124.214C121.374 124.824 121.527 124.763 121.74 125.435C121.679 125.74 121.466 126.565 121.374 126.962C121.252 127.481 120.336 127.176 119.969 126.687C119.664 126.26 119.511 125.557 119.511 124.733C119.511 124.092 119.511 123.97 119.695 123.634C120.458 122.29 121.374 122.626 122.107 121.802C122.229 121.679 122.412 121.435 122.473 121.069C122.656 120.031 122.443 118.809 122.107 117.985C122.076 117.893 122.107 118.015 122.076 117.893C121.954 117.16 123.572 121.313 123.817 121.74C123.878 121.863 124.092 122.107 124.122 122.199C124.183 122.382 124.122 124.428 124.122 124.855C124.122 125.13 124.092 125.527 124.092 125.802C124.092 125.771 124.214 125.282 124.244 125.13C124.336 124.55 124.397 123.908 124.397 123.298C124.397 122.962 124.397 122.657 124.427 122.321C124.641 122.076 125.252 122.168 125.405 120.641C125.466 119.908 125.405 118.076 125.374 117.252C125.343 115.573 125.313 113.863 125.282 112.183C125.282 111.573 125.252 111.053 125.282 110.412C125.313 110.473 125.374 110.565 125.405 110.626C125.435 110.718 125.466 110.748 125.496 110.809C125.557 110.351 125.221 108.855 125.13 108.458C124.947 108.824 124.977 109.557 125.008 110.107C125.038 110.687 125.038 111.298 125.038 111.908C125.069 114.657 125.13 117.466 125.16 120.214C125.16 120.641 125.191 120.794 125.069 120.977C124.855 121.282 124.641 121.374 124.366 121.191L124.305 114.199C124.366 114.321 124.458 114.504 124.519 114.595C124.519 114.046 124.275 112.458 124.153 112.244C124.03 112.733 124.03 112.55 124.03 113.252C124.03 115.817 124.122 118.443 124.092 120.977C123.847 120.794 123.481 119.786 123.267 119.298C122.992 118.595 122.107 116.672 122.015 116.428C122.412 116.244 122.809 116.336 123.145 116.916C123.237 117.069 123.328 117.313 123.389 117.405C123.45 117.191 123.45 116.886 123.45 116.611C123.45 116.214 123.42 116.244 123.298 116.061C122.809 115.084 122.687 113.802 122.718 112.336L122.901 112.55C122.87 112.305 122.656 110.931 122.595 110.809C122.168 112.428 122.687 114.412 122.626 115.481C122.198 115.298 121.924 115.42 121.557 115.664C121.527 115.603 121.466 115.481 121.405 115.389L119.878 112.519C119.695 112.183 119.511 111.847 119.328 111.481L119.359 111.45C119.756 110.718 123.634 108.519 124.305 109.069C124.458 109.191 124.489 109.618 124.366 109.893C124.122 110.504 123.298 111.664 123.237 112.58C123.328 112.428 123.389 112.244 123.481 112.061C123.542 111.939 123.572 111.908 123.603 111.786C123.664 111.695 123.695 111.664 123.725 111.573L124.122 110.748C124.153 110.718 124.122 110.718 124.153 110.687C124.183 110.626 124.183 110.626 124.214 110.565C124.336 110.26 124.519 109.771 124.611 109.344C124.733 108.672 124.641 108.183 124.336 108.092C123.542 107.847 119.847 109.924 119.328 110.718C119.114 111.023 119.145 112.153 119.114 112.366C119.114 112.366 118.717 113.313 118.687 113.466C118.534 113.893 118.412 114.351 118.412 114.962C118.412 115.328 118.473 115.542 118.412 115.756C117.954 117.038 117.557 118.901 118.198 120.061Z" fill="#B6CAE0"/>
<path opacity="0.5" d="M82.9618 102.534C83.6946 114.198 78.748 118.076 78.748 118.076C78.748 118.076 81.6183 117.16 84.0305 113.404C84.0305 113.404 84.7939 115.084 82.9923 116.855C82.9923 116.855 88.1221 113.954 86.4122 104.305C86.4122 104.305 85.2519 96.6411 88.3664 96.9769C88.3664 96.9769 88.3358 96.9464 88.3053 96.9159L85.5572 95.3892C85.5572 95.4197 82.5648 96.4884 82.9618 102.534Z" fill="#4C0049"/>
<path d="M82.2594 102.107C82.9922 113.771 78.0457 117.649 78.0457 117.649C78.0457 117.649 80.9159 116.733 83.3281 112.977C83.3281 112.977 84.0915 114.656 82.2899 116.427C82.2899 116.427 87.4197 113.527 85.7098 103.878C85.7098 103.878 84.5495 96.2136 87.664 96.5495C87.6335 96.5801 81.4961 90.4427 82.2594 102.107Z" fill="#97D9EB"/>
</svg>
