<svg width="200" height="200" viewBox="0 0 200 200" fill="none" xmlns="http://www.w3.org/2000/svg">
<path d="M100 200C155.228 200 200 155.228 200 100C200 44.7715 155.228 0 100 0C44.7715 0 0 44.7715 0 100C0 155.228 44.7715 200 100 200Z" fill="#C4EBE9"/>
<path opacity="0.6" d="M198.412 117.863L154.107 80.458L64.9465 137.802L72.061 144.977L130.26 189.038L136.489 193.13C168.305 180.672 192.183 152.336 198.412 117.863Z" fill="#9BBDBB"/>
<path d="M155.603 112.977L115.481 105.557L81.9237 115.695C81.4962 115.664 81.1298 115.939 81.0382 116.366C80.9466 116.824 81.252 117.252 81.71 117.313L81.8016 117.343L124.397 124.672C128.641 130.595 125.527 135.756 124.519 137.16L82.0764 129.557C82.0459 129.557 82.0153 129.557 81.9543 129.557C81.5573 129.527 81.1909 129.832 81.0993 130.229C81.0077 130.687 81.313 131.114 81.7711 131.175L125.13 139.114L154.809 126.931C161.466 119.298 155.603 112.977 155.603 112.977Z" fill="#F6871F"/>
<path d="M155.603 112.977L124.427 124.672C127.878 129.466 126.443 134.595 124.733 137.221C124.855 138.198 125.374 139.145 125.374 139.145L155.267 126.87C161.863 119.237 155.603 112.977 155.603 112.977Z" fill="#754C29"/>
<path d="M147.634 114.718C147.634 114.718 154.534 123.328 148.702 131.603L136.244 136.092C136.244 136.092 141.466 126.137 134.504 119.389L147.634 114.718Z" fill="#754C29"/>
<path d="M124.641 137.313C125.649 135.908 128.641 130.595 124.427 124.672L81.832 117.344L82.0152 129.527C82.0458 129.527 82.0763 129.527 82.1374 129.527L124.641 137.313Z" fill="white"/>
<path d="M153.374 97.2824L113.252 89.8625L79.6947 99.9999C79.2672 99.9694 78.9008 100.244 78.8092 100.672C78.7176 101.13 79.023 101.557 79.481 101.618L79.5726 101.649L122.168 108.977C126.412 114.901 123.298 120.061 122.29 121.466L79.8474 113.863C79.8169 113.863 79.7863 113.863 79.7253 113.863C79.3283 113.832 78.9619 114.137 78.8703 114.534C78.7787 114.992 79.084 115.42 79.5421 115.481L122.901 123.42L152.58 111.237C159.206 103.603 153.374 97.2824 153.374 97.2824Z" fill="#1CA5B0"/>
<path d="M153.374 97.2825L122.198 108.977C125.649 113.771 124.214 118.901 122.504 121.527C122.626 122.504 123.145 123.45 123.145 123.45L153.038 111.176C159.603 103.542 153.374 97.2825 153.374 97.2825Z" fill="#4C63AD"/>
<path d="M145.374 99.0227C145.374 99.0227 152.275 107.633 146.443 115.908L133.985 120.397C133.985 120.397 139.206 110.443 132.244 103.694L145.374 99.0227Z" fill="#4C63AD"/>
<path d="M122.412 121.618C123.42 120.214 126.412 114.901 122.199 108.977L79.603 101.649L79.7863 113.832C79.8168 113.832 79.8473 113.832 79.9084 113.832L122.412 121.618Z" fill="white"/>
<path d="M153.802 80.7634L113.679 73.3435L80.1222 83.4809C79.6947 83.4504 79.3283 83.7252 79.2367 84.1527C79.1451 84.6107 79.4504 85.0382 79.9085 85.0992L80.0001 85.1298L122.595 92.458C126.84 98.3817 123.725 103.542 122.718 104.947L80.2749 97.3435C80.2444 97.3435 80.2138 97.3435 80.1527 97.3435C79.7558 97.313 79.3894 97.6183 79.2978 98.0153C79.2062 98.4733 79.5115 98.9008 79.9695 98.9618L123.328 106.901L153.008 94.7175C159.664 87.084 153.802 80.7634 153.802 80.7634Z" fill="#F15A29"/>
<path d="M153.802 80.7634L122.626 92.4581C126.076 97.252 124.641 102.382 122.931 105.008C123.053 105.985 123.573 106.931 123.573 106.931L153.466 94.6565C160.061 87.023 153.802 80.7634 153.802 80.7634Z" fill="#924020"/>
<path d="M145.832 82.5037C145.832 82.5037 152.733 91.1144 146.901 99.3892L134.443 103.878C134.443 103.878 139.664 93.9235 132.702 87.1754L145.832 82.5037Z" fill="#924020"/>
<path d="M122.84 105.099C123.847 103.694 126.84 98.3815 122.626 92.4579L80.0305 85.1296L80.2137 97.3128C80.2443 97.3128 80.2748 97.3128 80.3359 97.3128L122.84 105.099Z" fill="white"/>
<path d="M118.473 135.847C118.473 137.557 117.069 138.626 115.359 138.626H66.9924C65.2825 138.626 64.4275 137.588 64.4275 135.847V76.0915C64.4275 74.3816 65.2825 72.9771 66.9924 72.9771H115.359C117.069 72.9771 118.473 74.3816 118.473 76.0915V135.847Z" fill="#9B4B9D"/>
<path d="M69.0993 129.74H118.29C118.443 129.374 118.534 128.977 118.534 128.55V69.0076C118.534 67.2976 117.13 65.8931 115.42 65.8931H67.023C65.313 65.8931 63.9084 67.2976 63.9084 69.0076V128.55C63.9084 130.259 65.313 131.664 67.023 131.664H69.0993V129.74V129.74Z" fill="#BE66A8"/>
<path opacity="0.7" d="M115.42 65.8931H93.5269V129.74H118.29C118.443 129.374 118.534 128.977 118.534 128.55V69.0076C118.534 67.2976 117.13 65.8931 115.42 65.8931Z" fill="#26439B"/>
<path d="M69.6489 65.9543H66.9924C65.2825 65.9543 63.8779 67.3589 63.8779 69.0688V135.542C63.8779 137.252 65.2825 138.657 66.9924 138.657H69.6489V65.9543Z" fill="#801D7F"/>
<path d="M116.397 129.74H69.0992C67.2977 129.74 65.832 131.206 65.832 133.008C65.832 134.809 67.2977 136.275 69.0992 136.275H116.397V129.74Z" fill="white"/>
<path d="M111.237 123.053C111.237 123.725 109.771 124.275 107.97 124.275H79.1756C77.3741 124.275 75.9084 123.725 75.9084 123.053C75.9084 122.382 77.3741 121.832 79.1756 121.832H107.97C109.771 121.832 111.237 122.382 111.237 123.053Z" fill="white"/>
<path d="M107.42 79.542C107.42 80.3359 106.015 80.9161 104.275 80.9161H82.8702C81.1297 80.9161 79.7251 80.3359 79.7251 79.542C79.7251 78.7481 81.1297 78.168 82.8702 78.168H104.275C106.015 78.168 107.42 78.7481 107.42 79.542Z" fill="white"/>
<path d="M139.023 79.7558C138.992 79.878 138.076 79.7864 136.977 79.5726L127.145 77.6795C126.046 77.4658 125.13 77.1909 125.16 77.0993C125.191 77.0077 126.107 77.0688 127.206 77.2825L137.038 79.1757C138.137 79.3895 139.053 79.6642 139.023 79.7558Z" fill="#E4E5E6"/>
<path d="M71.939 133.374V145.008L74.3512 143.023L76.3665 145.008V133.374H71.939Z" fill="#483735"/>
<path fill-rule="evenodd" clip-rule="evenodd" d="M100.947 110.29C100.794 110.076 100.672 109.74 100.611 109.496C100.214 107.694 101.191 107.297 101.801 107.756C102.107 108 102.473 108.794 102.382 109.404C102.29 109.832 101.374 110.168 100.947 110.29ZM94.6259 97.6792C95.0534 97.0074 94.8397 96.0609 95.0839 95.6029C95.3587 96.0609 95.6335 95.9693 95.7251 95.9082C96.1526 95.6029 95.7251 95.0532 95.2977 95.1143C94.5648 95.2364 94.9312 96.183 94.6564 96.8242C94.3511 96.2746 94.0763 95.9082 93.832 95.6639C93.1908 95.0838 92.8854 95.8166 93.1603 96.183C93.3435 96.4273 93.7099 96.3357 93.8931 96.4578C94.1374 96.6105 94.4732 97.0074 94.6259 97.6792ZM89.1297 96.7326C89.5877 96.0609 89.4045 95.1448 89.6793 94.6868C89.9236 95.1754 90.1984 95.0838 90.29 95.0227C90.7175 94.7174 90.3206 94.1677 89.9236 94.1983C89.1603 94.2899 89.5267 95.2364 89.2213 95.8777C88.916 95.3281 88.6717 94.9311 88.4274 94.6868C87.8167 94.0761 87.4809 94.809 87.7252 95.1754C87.8778 95.4502 88.2747 95.3586 88.458 95.4807C88.6717 95.6334 88.9771 96.0304 89.1297 96.7326ZM86.0458 93.1906C86.0458 93.1906 85.832 93.4654 85.7099 93.496C85.0381 93.5876 85.7099 91.9388 85.8015 91.5418C83.9694 93.9846 86.2595 94.9006 86.0458 93.1906ZM88.9465 92.7937C89.1603 94.5342 86.8702 93.5876 88.7022 91.1449C88.6106 91.5113 87.9389 93.1907 88.6106 93.0991C88.7633 93.0685 88.9465 92.7937 88.9465 92.7937ZM94.0458 91.6334C94.0458 91.6334 93.8931 91.8777 93.8015 91.9082C93.2518 92.0609 93.6488 90.5952 93.6488 90.2899C92.3969 92.5189 94.4122 93.038 94.0458 91.6334ZM101.343 95.0533C101.343 95.0533 101.191 95.3281 101.099 95.3586C100.519 95.5418 100.916 93.954 100.947 93.6181C99.5725 95.9998 101.71 96.5494 101.343 95.0533ZM95.0839 101.679C95.0839 101.679 94.9007 101.923 94.7786 101.923C94.1679 101.985 94.8702 100.488 94.9313 100.152C93.1297 102.351 95.2061 103.267 95.0839 101.679ZM98.4427 99.4196C98.4427 99.4196 98.29 99.725 98.1679 99.7555C97.5267 99.9387 97.9847 98.2288 98.0152 97.8624C96.519 100.488 98.8702 101.099 98.4427 99.4196ZM104.305 102.168C104.305 102.168 104.122 102.443 104 102.473C103.328 102.595 104 100.916 104.092 100.549C102.259 102.962 104.519 103.847 104.305 102.168ZM109.74 102.992C109.74 102.992 109.557 103.267 109.435 103.298C108.763 103.42 109.435 101.74 109.527 101.374C107.695 103.786 109.954 104.702 109.74 102.992ZM104.336 110.29C104.336 110.29 104.153 110.534 104.03 110.565C103.359 110.656 104.03 109.191 104.092 108.855C102.29 110.992 104.55 111.817 104.336 110.29ZM101.405 114.962C101.405 114.962 101.252 115.236 101.13 115.267C100.488 115.45 100.946 113.893 100.977 113.557C99.4808 115.908 101.832 116.458 101.405 114.962ZM86.5954 115.267C86.5954 115.267 86.4733 115.511 86.3511 115.542C85.8015 115.725 86.1068 114.32 86.1374 114.046C84.916 116.214 87.0228 116.58 86.5954 115.267ZM81.3435 110.962C81.3435 110.962 81.1603 111.175 81.0381 111.206C80.458 111.267 81.0992 109.923 81.1908 109.618C79.5114 111.542 81.4656 112.397 81.3435 110.962ZM86.29 111.908C86.687 111.267 86.5038 110.381 86.748 109.954C86.9923 110.412 87.2671 110.32 87.3282 110.259C87.7251 109.954 87.3282 109.435 86.9312 109.496C86.2289 109.588 86.5648 110.504 86.29 111.114C85.9847 110.595 85.7404 110.229 85.5267 110.015C84.9465 109.465 84.6412 110.168 84.8855 110.504C85.0381 110.748 85.4046 110.656 85.5878 110.778C85.8015 110.901 86.1068 111.267 86.29 111.908ZM103.786 97.099C104 97.099 104.061 97.1296 104.122 97.3128C104.214 97.5876 104.03 97.6181 104.03 97.6487C103.847 97.5265 103.725 97.3738 103.786 97.099ZM107.725 95.7555L108.427 97.1907C108.611 97.6487 108.885 98.2899 108.855 98.809L108.214 98.2288C108.03 101.068 108.55 103.939 108.275 107.328C108.183 108.427 108.092 109.313 107.481 110.107C107.45 108.885 107.603 107.572 107.603 106.351C107.634 103.664 107.481 99.9998 107.389 97.2822C107.328 96.4273 107.053 96.9158 107.725 95.7555ZM100.672 104.091C100.885 103.878 101.099 103.572 101.313 103.328C101.618 103.42 101.924 103.847 102.107 104.03L102.412 104.275C102.504 104.152 102.626 104.061 102.718 103.939C102.84 103.786 102.962 103.664 103.084 103.572C103.42 103.664 104.061 104.519 104.153 104.702C103.267 106.076 103.237 105.191 102.412 104.549L101.74 105.221C101.435 105.099 101.008 104.733 100.855 104.488C100.763 104.336 100.702 104.183 100.672 104.091ZM85.374 102.84C85.5572 103.206 85.9236 103.633 86.3816 103.878C86.5954 103.725 86.8702 103.42 87.1145 103.236C87.3893 103.389 87.7252 103.908 88.061 104.152C88.4274 104.091 88.7633 103.694 88.8854 103.389C88.7633 103.145 88.061 102.351 87.8167 102.29C87.5725 102.443 87.5725 102.595 87.0839 102.992C86.7786 102.84 86.5038 102.32 86.0152 102.076C85.832 102.168 85.5572 102.626 85.374 102.84ZM85.9542 89.038C86.4732 88.9464 87.1145 88.7326 87.6641 88.6105L91.145 87.7556C91.8167 87.5724 92.4274 87.5113 92.6717 86.9922C92.0916 87.0533 88.1831 87.9998 87.3893 88.2136C87.0839 88.3052 86.8702 88.3662 86.5648 88.4578C86.29 88.5494 86.0763 88.7632 85.9542 89.038ZM83.1755 97.1601C83.2671 97.099 83.4198 97.1296 83.5114 97.1907C83.603 97.2823 83.5725 97.4349 83.5419 97.5876C83.3587 97.557 82.9923 97.3128 83.1755 97.1601ZM84.2442 109.099C84.2748 109.252 84.7633 109.954 84.2748 109.862C84.2442 109.862 84.1221 109.771 84.0916 109.74C83.6946 109.374 83.9389 108.855 84.2442 108.61C84.6107 108.336 86.8397 107.817 87.4503 107.633C87.8778 107.511 88.7633 107.206 89.0992 107.175C88.9771 107.817 87.603 108.03 86.7786 108.244C86.3206 108.366 85.9542 108.488 85.4961 108.61C85.0687 108.794 84.6107 109.007 84.2442 109.099ZM98.0152 116.855C97.8931 116.152 97.5572 115.755 97.3435 115.603C97.1603 115.481 96.7633 115.542 96.6106 115.267C96.3664 114.87 96.7328 114.168 97.3129 114.778C97.5572 115.023 97.8015 115.42 98.0763 116C98.4121 115.359 98.0763 114.351 98.8396 114.29C99.2366 114.259 99.6641 114.839 99.2061 115.114C99.1145 115.175 98.8091 115.267 98.5954 114.778C98.3206 115.236 98.5038 116.183 98.0152 116.855ZM91.3587 109.832C91.3282 109.526 91.3587 109.374 91.4503 109.099C91.8167 109.068 92.1832 109.282 92.2442 109.74C91.9389 109.862 91.7557 110.015 91.3587 109.832ZM83.8168 103.847C84.3664 102.32 85.374 104.977 84.1831 103.847C84.1831 103.847 84.0916 103.786 84.061 103.908C83.8778 104.58 83.7862 105.313 83.4809 105.862C83.4198 105.771 83.0534 104.763 82.8397 104.733C82.0763 104.641 81.832 104 82.4427 103.725C83.0839 103.542 83.3282 104.794 83.5419 104.946C83.6641 104.61 83.7251 104.152 83.8168 103.847ZM97.4961 91.9082C97.7404 91.9082 97.832 91.9387 97.9847 92.0609C98.5648 92.5189 97.8015 92.8548 97.374 92.5494L97.4961 91.9082ZM97.6793 109.649C97.832 109.618 97.9847 109.496 98.1068 109.435C98.4732 109.252 98.8397 109.221 99.0534 109.038C99.3587 108.794 99.145 108.519 98.8702 108.702C97.9542 109.252 97.8015 108.305 98.3511 108.305C99.0534 108.305 98.5954 107.572 97.8625 108.183C97.374 108.58 97.8626 108.794 97.9542 109.16C97.8015 109.374 97.7404 109.221 97.4961 109.649H97.6793ZM81.0687 106.351C81.0687 106.351 80.8549 106.595 80.7328 106.595C80.061 106.656 80.7939 105.16 80.8855 104.824C78.9923 106.992 81.1908 107.939 81.0687 106.351ZM97.0687 103.694C97.3129 103.664 97.9542 103.389 98.2595 103.267C98.9923 102.962 99.0839 103.023 99.2366 102.626C98.8396 102.687 98.3816 102.901 98.0152 103.053C97.0992 103.42 97.1908 103.267 97.0687 103.694ZM95.6335 84.8548C86.0152 83.7556 77.3129 90.6563 76.1832 100.275C75.0839 109.893 81.9847 118.595 91.603 119.725C101.221 120.824 109.924 113.923 111.053 104.305C112.153 94.6563 105.252 85.954 95.6335 84.8548ZM95.5114 85.8624C86.4427 84.8242 78.2595 91.3281 77.1908 100.397C76.1526 109.465 82.6565 117.649 91.7252 118.717C100.794 119.755 108.977 113.252 110.046 104.183C111.084 95.1143 104.58 86.9006 95.5114 85.8624ZM97.4656 91.4502C97.2518 91.7555 97.0992 92.2746 97.0992 92.6716C97.0992 93.099 97.5877 93.2212 97.9847 93.0074C98.8397 92.58 98.5648 91.4502 97.4656 91.4502ZM91.4809 108.58C91.3587 108.946 91.1145 109.465 91.0839 109.862C91.0534 110.351 91.6335 110.443 92.0305 110.259C92.9465 109.832 92.6106 108.794 91.4809 108.58ZM83.1755 98.1983C82.8091 98.6868 81.0381 100.091 80.4885 100.458C80.1526 100.702 79.7862 100.885 79.5419 101.191C79.9084 101.069 80.3053 100.824 80.6412 100.641C81.5877 100.091 81.8625 99.9693 82.6564 99.267C82.8396 99.1143 82.9312 99.0532 83.0839 98.8395C83.1755 98.7173 83.2061 98.6868 83.2977 98.5952C83.3588 98.5342 83.3282 98.5342 83.3893 98.4731L83.5419 98.3509C83.8473 98.5647 83.8168 98.7174 84.0916 98.87C84.2137 98.412 84.061 98.1372 83.7862 97.8929C83.8168 97.6181 83.9694 97.0074 83.9084 96.7937C83.7557 96.2746 82.6259 96.58 82.8091 97.496C82.8091 97.8624 82.9923 97.9845 83.1755 98.1983ZM103.084 100.519C103.023 101.832 102.87 102.259 102.412 103.389C102.412 103.389 102.382 103.328 102.382 103.359C102.321 103.481 102.412 101.771 102.412 101.588C102.412 100.977 102.382 100.427 102.29 99.8166C101.801 99.9693 101.282 100.427 100.641 100.519C100.824 100.275 101.954 99.5418 102.229 99.3586C102.351 97.3433 102.137 94.1067 102.046 91.9387C102.015 91.0838 101.771 90.3815 102.473 89.8013L102.534 89.8624C102.962 90.5647 103.45 92.183 103.542 92.9769L102.901 92.3662L103.114 98.6258C103.359 98.5342 103.542 98.2593 103.664 98.0761C103.572 97.8318 103.298 97.4349 103.328 97.1601C103.42 96.5189 104.611 96.1525 104.458 97.4044C104.397 97.8319 104.275 97.7402 104.153 98.5341C103.908 98.6257 104.03 98.351 103.634 98.7479C103.481 98.9006 103.298 98.9922 103.176 99.1143C102.962 99.3586 103.114 100.152 103.084 100.519ZM91.3893 106.32C91.7252 106.259 91.7557 106.534 91.7557 106.809C91.4809 106.748 91.3282 106.565 91.3893 106.32ZM78.5954 106.778C78.687 105.893 79.0839 105.099 79.5725 104.366C80.1221 103.542 79.6946 104.214 81.5267 103.359C83.3587 102.504 86.1984 99.9387 87.7252 99.5418C87.8168 99.6639 88.061 99.8777 88.2442 100.03C89.1908 100.977 90.9923 102.839 91.0228 104.183C90.7175 104.275 90.1068 104.641 89.374 104.885C85.6183 106.076 84.3053 105.71 80.977 108.336C79.7251 109.435 78.4427 108.122 78.5954 106.778ZM81.6183 93.8929C82.5649 94.5647 86.1068 98.0761 86.8091 98.5341C86.3206 99.3586 80.2442 103.42 78.8091 102.717C78.4427 102.534 78.3206 102.32 78.1984 101.954C77.8626 100.885 78.5648 99.6639 79.145 98.7784C79.8778 97.7097 79.7251 98.3815 80.6412 97.496C80.8549 97.2823 81.1603 96.9158 81.1908 96.5494C80.6717 96.6715 80.5496 97.2212 80.2137 96.9158C79.9694 96.7021 80.0915 95.9387 80.2137 95.6334C80.4885 95.0838 81.1603 94.2899 81.6183 93.8929ZM78.6564 103.389C79.0229 103.664 79.1755 103.694 79.3893 103.847C79.2977 104.122 79.0229 104.519 78.8702 104.794C78.2901 105.832 77.832 107.023 78.3511 108.183C78.8091 109.221 80 110.015 81.0687 109.374C81.2824 109.252 81.771 108.885 81.9847 108.885C81.771 110.687 81.9236 111.969 82.9312 112.946C84.0916 114.015 85.8015 113.893 87.5114 113.923C87.9083 115.939 88.6412 118.229 91.2977 116.366C91.9389 115.908 92.5801 115.267 93.2213 114.748L94.0458 114.046C95.145 113.282 95.9694 112.946 97.4351 112.488C97.9541 112.336 100.092 111.664 100.519 111.725C100.641 111.939 100.702 112.122 100.794 112.305L101.313 113.068C102.168 113.985 104.244 113.618 104.855 112.946C106.107 111.603 105.863 109.16 105.801 107.267C105.74 105.252 105.771 103.206 105.74 101.16C105.74 100.183 105.679 99.0838 105.71 98.1372C105.771 97.099 105.71 95.9693 105.832 94.9616C106.046 95.1754 106.046 95.4197 106.382 95.5113C106.321 94.9922 106.168 94.351 106.015 93.8624L105.313 92.3968C105.16 92.7632 104.885 92.9159 104.885 93.4044C104.916 97.8929 105.099 102.351 105.13 106.839C105.13 107.45 105.221 111.603 105.099 111.817C104.824 112.305 101.985 113.13 101.282 111.328C101.405 111.175 101.618 111.053 101.771 110.962C104.153 109.16 102.687 105.526 101.038 106.595C100.702 106.839 100.458 107.114 100.275 107.603C99.8778 108.672 100.092 109.526 100.153 110.565C99.9694 110.717 98.6565 111.084 98.2595 111.175C95.8168 111.847 94.6259 112.244 92.7633 113.954C88.3969 118.412 87.5419 114.259 88.0916 113.71C88.3053 113.496 94.7481 112.488 94.5954 109.191C94.5649 108.336 93.771 106.962 93.8626 106.443C94.1984 106.534 94.1374 106.717 94.5954 106.656C94.5038 106.412 94.3816 106.381 94.2595 106.168L93.1908 104.794C92.9465 104.946 92.8855 105.099 92.7939 105.435C92.6717 105.801 92.7022 105.832 92.8244 106.168C93.2213 107.328 93.7099 108.427 94.0152 109.649C94.1679 110.229 93.5572 110.32 93.1603 110.626C92.977 110.748 92.7938 110.839 92.5801 110.962C92.1526 111.175 91.7557 111.359 91.2671 111.572C90.6259 111.878 89.0992 112.397 88.4274 112.488C88.5496 111.725 89.0076 111.114 89.4351 110.656C90.5343 109.557 89.9542 109.985 89.5572 109.099C90.0152 108.977 90.8702 108.305 91.2366 107.969C91.4198 107.817 91.5419 107.633 91.7862 107.572C91.9389 107.786 91.8778 107.878 92.1526 107.908C92.4274 107.603 92.2137 107.42 92.0305 107.267C92.1526 106.565 92.3969 106.198 91.9389 105.71C91.4503 105.588 91.2061 105.923 91.0839 106.32C90.8397 107.023 91.1755 106.962 91.3587 107.297C91.0534 107.694 90.6564 108 90.2595 108.305C89.3129 109.068 89.5267 108.946 88.9771 108.824C87.8778 109.588 88.3358 109.557 88.9465 110.412C88.7939 110.809 88.1221 111.847 87.8473 112.397C87.5114 113.068 84.7633 112.672 83.6946 112.03C82.7786 111.45 82.3511 110.565 82.3511 109.465C82.3511 108.641 82.3206 108.488 82.9007 108.061C85.2213 106.351 87.9083 106.778 90.1068 105.679C90.4732 105.496 91.0228 105.191 91.1755 104.763C91.6946 103.42 91.1145 101.832 90.1679 100.763C90.0458 100.641 90.1374 100.824 90.0763 100.641C89.7099 99.6944 94.4427 105.068 95.2061 105.649C95.4198 105.801 96.0305 106.107 96.1526 106.229C96.3053 106.473 96.1832 109.099 96.1221 109.679C96.0916 110.046 96 110.565 96 110.901C96 110.87 96.3664 110.198 96.4274 110.015C96.7023 109.252 96.8549 108.458 96.9465 107.633C96.977 107.206 96.9771 106.778 97.0381 106.381C97.6488 106.076 99.4809 106.198 99.9694 104.214C100.214 103.267 99.9694 100.885 99.9694 99.8166C99.9389 97.6181 99.8168 95.4197 99.7862 93.2212C99.7862 92.4578 99.7251 91.7556 99.8473 90.9311C99.9694 90.9922 100.092 91.1449 100.183 91.2365C100.305 91.3586 100.336 91.3891 100.458 91.4807C100.611 90.87 99.6641 88.9464 99.4503 88.4273C98.9007 88.8853 98.9618 89.8319 99.0229 90.5647C99.0839 91.3281 99.1144 92.122 99.1144 92.9159C99.206 96.4884 99.3282 100.091 99.3587 103.664C99.3587 104.214 99.4809 104.397 99.0534 104.641C98.4122 105.007 97.8015 105.16 96.9465 104.916L96.8244 95.8777C97.0381 96.0303 97.2519 96.2746 97.4351 96.3967C97.4656 95.6944 96.7022 93.6181 96.3664 93.3433C96.0305 93.9845 96 93.7403 96 94.6258C96 97.954 96.2442 101.343 96.061 104.641C95.3282 104.397 94.2289 103.114 93.6488 102.473C92.8244 101.588 90.1984 99.0838 89.9541 98.7479C91.1145 98.5036 92.3053 98.6563 93.3434 99.3891C93.6488 99.6029 93.8625 99.8777 94.0763 100.03C94.229 99.7555 94.29 99.3586 94.3206 99.0227C94.3206 98.5342 94.1984 98.5647 93.8931 98.2899C92.4274 97.038 92.1526 95.3586 92.1832 93.4349L92.7022 93.7097C92.6412 93.4044 91.9999 91.6029 91.7862 91.4502C90.5038 93.5265 91.9694 96.122 91.7862 97.496C90.5343 97.2823 89.6794 97.4349 88.6412 97.7403C88.5191 97.6487 88.3664 97.5265 88.2137 97.4044L83.7557 93.6487C83.2366 93.1906 82.6564 92.7632 82.1374 92.2746L82.1984 92.2136C83.4198 91.2975 94.9007 88.4578 96.8855 89.1601C97.3129 89.3128 97.4351 89.8624 97.0992 90.2288C96.3664 91.0227 93.9542 92.5189 93.7099 93.7097C93.9847 93.5265 94.1984 93.2517 94.4427 93.038C94.6259 92.8853 94.687 92.8242 94.8396 92.7021C94.9923 92.58 95.0839 92.5494 95.2366 92.4273L96.4274 91.3891C96.4885 91.3281 96.458 91.3586 96.519 91.2975C96.5801 91.2365 96.6106 91.2059 96.7022 91.1449C97.0686 90.7784 97.6488 90.1372 97.8931 89.5571C98.2595 88.7021 98.0458 88.0609 97.0687 87.9388C94.7481 87.6029 83.7251 90.2899 82.1679 91.3281C81.5877 91.725 81.6183 93.1906 81.5267 93.4655C81.5267 93.496 80.3969 94.6868 80.2137 94.9006C79.7862 95.4197 79.3893 96.0303 79.3587 96.8548C79.3282 97.3128 79.5419 97.5876 79.2977 97.8929C77.9847 99.4807 76.7328 101.893 78.6564 103.389Z" fill="white"/>
<g opacity="0.5">
<path opacity="0.5" d="M76.7634 102.29C76.7634 92.977 84.3054 85.4351 93.6184 85.4351C102.931 85.4351 110.473 92.977 110.473 102.29C110.473 111.603 102.931 119.145 93.6184 119.145C84.3054 119.145 76.7634 111.603 76.7634 102.29Z" fill="white"/>
<path opacity="0.5" d="M93.6184 85.4045C93.4962 85.4045 93.3436 85.4045 93.2214 85.4045V119.114C93.3436 119.114 93.4962 119.114 93.6184 119.114C102.931 119.114 110.473 111.573 110.473 102.26C110.473 92.9466 102.931 85.4045 93.6184 85.4045Z" fill="#FFF3D3"/>
</g>
<path d="M124.244 79.2673C124.428 79.0231 123.298 78.7177 122.626 78.7177C121.252 78.6567 119.878 78.9925 118.779 79.2368C118.687 79.2673 118.626 79.2673 118.534 79.2979V79.4505C118.626 79.42 118.718 79.42 118.809 79.3895C119.176 79.3284 121.649 78.8093 121.863 78.8093C122.29 78.8093 124.031 79.1757 123.237 79.4811C123.084 79.4811 122.931 79.4505 122.809 79.4505C120.672 79.2673 119.084 79.9391 120.458 80.0612C120.763 80.0917 121.038 80.0917 121.405 80.0612C122.229 80.0001 122.657 79.878 123.237 79.7253C123.42 79.7253 124.183 79.9086 124.428 79.9696C125.893 80.275 126.657 80.4276 128.519 80.5498C133.13 80.733 130.992 81.3742 130.412 81.3437C130.199 81.3437 126.779 80.3971 124.825 80.8246C124.305 80.9162 123.847 81.2215 123.481 81.252C123.389 81.191 123.542 81.1604 123.298 81.0994C123.176 81.1299 123.206 81.1605 123.145 81.2215L122.779 81.5574C122.962 81.5879 123.115 81.5574 123.328 81.5574C123.603 81.5269 123.603 81.5269 123.756 81.4658C124.305 81.2521 124.733 81.0689 125.344 80.8551C125.618 80.7635 125.954 80.8551 126.29 80.8857C126.443 80.8857 126.596 80.9162 126.748 80.9467C127.084 80.9772 127.359 81.0383 127.695 81.0994C128.153 81.1604 129.16 81.3437 129.496 81.4658C128.977 81.5269 128.397 81.5269 127.939 81.5269C126.779 81.4658 127.298 81.5269 126.931 81.6795C126.657 81.6185 125.863 81.5574 125.496 81.5269C125.344 81.5269 125.16 81.5269 125.038 81.4963C125.099 81.4353 125.191 81.4353 125.099 81.4047C124.794 81.4047 124.763 81.4353 124.763 81.4963C124.275 81.5574 123.939 81.5574 123.847 81.6795C124 81.7711 124.305 81.7711 124.58 81.7406C125.099 81.7101 124.916 81.649 125.038 81.5879C125.405 81.5879 125.771 81.6185 126.138 81.649C126.992 81.7101 126.84 81.6795 127.023 81.8017C127.97 81.8933 127.756 81.8322 128 81.6185C128.305 81.5879 129.221 81.5879 129.679 81.5574C130.229 81.5269 131.206 82.0154 131.267 82.2902C131.328 82.504 130.962 82.6871 130.29 82.8093C129.802 82.9009 129.71 82.9314 129.191 82.8704C127.145 82.6872 126.229 82.1986 124.611 81.9849C124.336 81.9543 123.908 81.8933 123.573 81.9238C122.534 81.9849 121.832 82.2902 121.588 82.565C121.557 82.5956 121.618 82.565 121.557 82.5956C121.13 82.7482 122.351 81.3742 122.351 81.1605C122.351 81.0994 122.29 80.9772 122.29 80.9467C122.351 80.8856 124.031 80.6109 124.397 80.5498C124.641 80.5193 124.977 80.4582 125.191 80.4276C125.16 80.4276 124.611 80.4582 124.458 80.4582C123.878 80.4887 123.328 80.5803 122.809 80.6414C122.534 80.6719 122.29 80.733 122.015 80.7635C121.557 80.7024 120.855 80.3971 119.42 80.5498C119.176 80.5803 118.84 80.6414 118.473 80.7025V80.8857C118.779 80.8246 119.054 80.7635 119.359 80.7025C119.695 80.6414 119.756 80.6108 120.092 80.6414C120.58 80.7024 120.947 80.794 121.191 80.9467L118.473 81.4963V81.6795C119.45 81.4963 120.397 81.3131 121.405 81.1299C121.557 81.2826 121.283 81.6185 121.13 81.7712C120.947 82.0154 120.58 82.7177 120.489 82.8093C119.817 82.6566 119.389 82.4429 119.42 82.1681C119.42 82.107 119.481 82.0154 119.481 81.9849C119.237 81.9849 118.992 82.0154 118.748 82.0765C118.443 82.1376 118.534 82.1376 118.504 82.2292C118.504 82.2597 118.473 82.2902 118.443 82.3207V82.7788C118.596 82.7482 118.779 82.6872 118.931 82.6872C119.359 82.9315 119.817 83.023 120.458 83.1757C120.458 83.2063 120.458 83.2368 120.428 83.2979L120.092 84.4581C120.061 84.6108 120.031 84.733 119.97 84.8856H119.908C119.664 84.8551 119.115 84.7635 118.443 84.6413V84.8551C118.84 84.9162 119.176 84.9772 119.359 85.0078C119.847 85.0688 120.733 84.8856 120.947 84.8551C120.947 84.8551 122.168 84.8856 122.382 84.9161C122.901 84.9161 123.42 84.9162 123.939 84.8246C124.214 84.7635 124.305 84.7024 124.58 84.7024C126.015 84.733 128.031 84.6413 128.122 84.1528C128.122 84.0612 128.092 84.0307 128.092 83.9696C128.305 83.9696 128.672 83.9391 128.886 83.9391C129.771 83.9085 130.687 83.8475 131.176 83.6337C131.603 83.4505 131.573 83.1452 130.718 83.0536C130.534 83.023 130.107 82.9925 130.015 82.962C131.206 82.7787 131.909 82.6261 132.061 82.3207C132.214 82.0154 131.389 81.7406 130.687 81.4658C131.756 81.1605 132.825 80.7941 130.504 80.5498C129.954 80.4887 129.283 80.4582 128.702 80.4276L127.939 80.3666C126.992 80.2749 126.412 80.1834 125.496 80.0002C125.16 79.9391 123.847 79.6643 123.695 79.6032C123.786 79.5727 123.878 79.5116 123.939 79.4811L124.244 79.2673ZM122.351 79.7864C121.435 80.0612 120.763 79.9391 120.794 79.7864C120.825 79.6948 121.13 79.5422 121.557 79.5116C121.863 79.4811 122.443 79.5727 122.718 79.6338C122.657 79.6948 122.473 79.7559 122.351 79.7864ZM124.428 81.649C124.244 81.5879 124.397 81.5574 124.58 81.5269C124.672 81.5879 124.611 81.649 124.428 81.649ZM127.542 84.3055C127.054 84.4887 125.985 84.5192 125.191 84.5192C124.214 84.5192 124.702 84.4581 123.756 84.4276C123.512 84.4276 123.176 84.3971 122.931 84.4581C123.237 84.5192 123.634 84.4887 123.573 84.5803C123.542 84.6413 123.023 84.7024 122.809 84.733C122.351 84.7635 121.588 84.733 121.16 84.7024C121.16 84.4582 121.741 83.4811 121.71 83.3284C122.412 83.3284 127.542 83.8169 127.756 84.1528C127.786 84.2139 127.725 84.2444 127.542 84.3055ZM130.199 83.1146C131.42 83.1757 131.176 83.5421 130.29 83.6948C129.71 83.7864 129.069 83.8169 128.397 83.8169C127.664 83.8169 128.275 83.8169 126.931 83.6032C125.618 83.42 122.809 83.2368 121.924 83.023C121.954 82.9925 121.985 82.9314 122.015 82.8704C122.168 82.5956 122.534 82.107 123.328 81.9238C123.542 81.9544 124 82.0154 124.458 82.107C126.84 82.6261 127.176 82.8704 130.199 83.1146Z" fill="#E4E5E6"/>
<path d="M126.382 79.3588C126.015 79.3283 125.832 79.4504 126.046 79.5115C126.412 79.6336 126.87 79.4504 127.42 79.4504C127.206 79.5725 127.053 79.6641 127.023 79.7252C126.901 79.9084 127.512 79.8779 127.634 79.7863C127.725 79.7252 127.511 79.6642 127.511 79.6336C127.511 79.5726 127.634 79.4809 127.97 79.3893C127.359 79.3893 126.84 79.5115 126.473 79.542C126.657 79.3893 126.473 79.3588 126.382 79.3588Z" fill="#E4E5E6"/>
<path d="M124.672 79.2368C126.748 79.2063 126.046 78.7483 125.344 78.9926C125.344 78.9926 125.588 78.9926 125.649 78.9926C126.015 79.1147 124.886 79.2063 124.672 79.2368Z" fill="#E4E5E6"/>
<path d="M131.42 81.6184C133.252 81.5574 132.55 81.1909 131.97 81.4046C131.97 81.4046 132.183 81.4046 132.244 81.4046C132.611 81.4657 131.603 81.5879 131.42 81.6184Z" fill="#E4E5E6"/>
<path d="M123.725 82.4124C123.634 82.4734 123.45 82.6567 123.511 82.7177C123.725 82.7483 123.817 82.7177 124.244 82.7482C124.275 82.8093 124.092 82.9315 124.153 83.0231C124.336 83.0231 124.733 83.0231 124.947 83.0231C125.099 82.962 125.191 82.8399 125.13 82.7482C124.947 82.7177 124.641 82.7177 124.397 82.7177C124.366 82.6567 124.519 82.5345 124.55 82.4734C124.336 82.4124 123.969 82.3818 123.725 82.4124Z" fill="#E4E5E6"/>
<path d="M128.977 83.3281C128.977 83.3281 129.221 83.3281 129.282 83.3587C129.618 83.4502 128.366 83.5113 128.122 83.5418C130.26 83.6029 129.863 83.1144 128.977 83.3281Z" fill="#E4E5E6"/>
<path d="M126.229 83.1756C126.473 83.1451 126.778 83.1145 126.992 83.084C126.992 83.1451 126.351 83.3283 126.748 83.4199C127.175 83.4809 127.481 83.3893 127.206 83.2367C127.145 83.2061 127.603 83.023 127.633 82.9924C127.145 82.9924 126.687 83.084 126.198 83.1145C126.107 83.1145 126.107 83.1145 126.107 83.1145C126.229 82.7787 125.069 83.2672 126.229 83.1756Z" fill="#E4E5E6"/>
<path d="M123.969 83.9083C123.786 83.9083 123.725 83.8778 123.542 83.8778C123.42 83.8778 123.389 83.8778 123.298 83.8778C123.237 83.8778 123.237 83.8778 123.176 83.8778H123.053C123.053 83.8167 123.176 83.7862 123.114 83.7251C122.779 83.7556 122.687 83.8167 122.656 83.8778C122.473 83.9083 122.046 83.9389 121.924 83.9694C121.679 84.061 122.351 84.2137 122.84 84.061C123.023 83.9999 122.992 83.9694 123.053 83.9083C123.511 83.9083 125.13 84.0305 125.618 84.0915C125.893 84.1221 126.168 84.1526 126.473 84.1526C126.26 84.1221 125.924 84.061 125.649 84.0304C124.947 83.9694 124.733 83.9389 123.969 83.9083ZM122.443 84.061C122.351 84.061 122.321 84.0304 122.321 83.9999C122.351 83.9694 122.443 83.9694 122.565 83.9389C122.626 83.9694 122.626 84.061 122.443 84.061Z" fill="#E4E5E6"/>
<path d="M128.611 81.8626C128.244 81.832 128.122 81.9542 128.305 82.0152C128.672 82.1068 129.069 81.9542 129.557 81.9236C129.374 82.0458 129.252 82.1068 129.221 82.1679C129.13 82.3206 129.71 82.29 129.802 82.229C129.893 82.1679 129.679 82.1374 129.649 82.0763C129.618 82.0152 129.741 81.9236 130.046 81.832C129.466 81.832 129.038 81.9847 128.672 81.9847C128.855 81.8931 128.672 81.8626 128.611 81.8626Z" fill="#E4E5E6"/>
<path d="M120.458 79.2976C122.534 79.3282 122.046 78.8702 121.221 79.0839C121.221 79.0839 121.466 79.0839 121.527 79.1144C121.863 79.206 120.672 79.2671 120.458 79.2976Z" fill="#E4E5E6"/>
<path d="M125.985 81.9237C126.137 81.9847 126.717 82.0763 126.992 82.1374C127.389 82.229 128.641 82.5343 128.977 82.5343C129.252 82.5649 129.679 82.5343 129.71 82.4427V82.4122C129.557 82.3206 129.343 82.4732 129.252 82.5038C129.038 82.4427 128.702 82.4122 128.427 82.3511C128.153 82.29 127.908 82.229 127.633 82.1984C127.145 82.0458 126.443 81.8626 125.985 81.9237Z" fill="#E4E5E6"/>
<path d="M126.748 81.2824C127.053 81.2213 126.87 81.1297 126.595 81.0686C125.924 80.977 125.466 81.1297 125.802 81.3435C126.046 81.3435 126.473 81.3434 126.748 81.2824ZM126.137 81.0992C126.321 81.1297 126.504 81.1602 126.595 81.2213C126.412 81.2518 126.321 81.2824 126.107 81.2824C125.924 81.2518 125.893 81.1602 126.137 81.0992Z" fill="#E4E5E6"/>
<path d="M132.489 80.061C129.649 78.6869 123.939 78.0457 118.504 78.3205V78.5342C123.664 78.2594 129.13 78.8701 131.817 80.1831C135.145 81.7709 132.977 83.7862 126.993 84.6717C124.306 85.0686 121.283 85.1602 118.504 85.0075V85.2212C121.435 85.3739 124.55 85.2518 127.359 84.8548C133.741 83.8778 136.031 81.7403 132.489 80.061Z" fill="#E4E5E6"/>
<path d="M118.534 78.8092C118.962 78.7481 119.389 78.6565 119.756 78.5955C119.298 78.5955 118.901 78.626 118.534 78.6565V78.8092Z" fill="#E4E5E6"/>
<path d="M120.366 81.0383C120.244 81.0077 119.786 80.9161 119.603 80.8856C119.114 80.794 119.114 80.7939 118.779 80.7939C118.992 80.855 119.328 80.8856 119.572 80.9466C120.183 81.0688 120.061 81.0688 120.366 81.0383Z" fill="#E4E5E6"/>
<path d="M119.572 83.145C119.175 83.145 118.809 83.2061 118.504 83.2671V83.2977C118.656 83.2672 118.84 83.2366 119.023 83.2366C118.809 83.3587 118.687 83.4198 118.656 83.5114C118.565 83.6641 119.145 83.6641 119.267 83.5725C119.359 83.5114 119.145 83.4503 119.145 83.4198C119.145 83.3282 119.236 83.2366 119.572 83.145Z" fill="#E4E5E6"/>
<path d="M122.656 80.2747C122.351 80.1526 122.107 80.3053 122.779 80.3663C123.237 80.3968 123.175 80.3053 123.328 80.2442C123.542 80.2442 123.45 80.2747 123.847 80.2747L123.725 80.2442C123.634 80.2137 123.481 80.2137 123.42 80.2137C123.175 80.1831 122.962 80.1221 122.779 80.0916C122.504 80.061 122.412 80.1221 122.656 80.1526C123.389 80.2442 122.87 80.3663 122.656 80.2747Z" fill="#E4E5E6"/>
<path d="M118.534 79.7864V80.397C118.718 80.397 118.901 80.397 119.054 80.397C119.084 80.3665 119.176 80.3665 119.206 80.3359C119.267 80.2749 119.328 80.1833 119.267 80.1222L118.565 80.0917C118.565 79.9085 118.84 79.8169 118.534 79.7864Z" fill="#E4E5E6"/>
<path d="M118.779 84.061C118.779 84.061 119.023 84.061 119.115 84.0916C119.328 84.1526 118.931 84.2137 118.534 84.2442V84.3053C120.092 84.2137 119.634 83.8473 118.779 84.061Z" fill="#E4E5E6"/>
<path d="M120.031 81.5878C120.031 81.5878 120.275 81.5878 120.305 81.6184C120.611 81.71 119.389 81.7711 119.145 81.8016C121.252 81.8322 120.947 81.374 120.031 81.5878Z" fill="#E4E5E6"/>
<path d="M131.664 82.7482C131.664 82.7482 131.878 82.7482 131.939 82.7787C132.244 82.8703 131.145 82.9314 130.901 82.9314C132.794 82.9619 132.458 82.565 131.664 82.7482Z" fill="#E4E5E6"/>
</svg>
