<svg width="200" height="200" viewBox="0 0 200 200" fill="none" xmlns="http://www.w3.org/2000/svg">
<path d="M100 200C155.228 200 200 155.228 200 100C200 44.7715 155.228 0 100 0C44.7715 0 0 44.7715 0 100C0 155.228 44.7715 200 100 200Z" fill="#C4EBE9"/>
<path opacity="0.6" d="M199.572 109.496L154.168 68.6108L59.8474 138.199L68.2443 142.473L58.168 142.229L141.496 189.038L143.42 190.107C174.198 175.267 196.214 145.099 199.572 109.496Z" fill="#9BBDBB"/>
<path d="M106.29 78.1984L59.8474 68.6412L109.618 59.1755L154.137 68.6106L106.29 78.1984Z" fill="black"/>
<path d="M106.443 76.2449L69.4045 68.6419L109.099 61.0693L144.58 68.6113L106.443 76.2449Z" fill="#353335"/>
<path d="M104.763 151.756L58.168 142.229L110.137 131.969L156.763 141.496L104.763 151.756Z" fill="black"/>
<path d="M106.29 78.1986L106.443 147.756L59.8474 138.199V68.6414L106.29 78.1986Z" fill="#201E1F"/>
<path d="M106.29 78.1681L106.137 147.725L154.137 138.168V68.6108L106.29 78.1681Z" fill="black"/>
<path d="M106.26 87.8169L106.229 96.7634L154.137 86.1375V78.4734L106.26 87.8169Z" fill="#FBAD1C"/>
<path d="M106.229 87.8169V96.7634L59.8779 86.1375V78.4734L106.229 87.8169Z" fill="#FFDE17"/>
</svg>
