<svg width="200" height="200" viewBox="0 0 200 200" fill="none" xmlns="http://www.w3.org/2000/svg">
<path d="M100 200C155.228 200 200 155.228 200 100C200 44.7715 155.228 0 100 0C44.7715 0 0 44.7715 0 100C0 155.228 44.7715 200 100 200Z" fill="#C4EBE9"/>
<path opacity="0.6" d="M128.916 195.756C162.076 185.771 188 158.992 196.794 125.313L144.061 76.6716L100.947 147.389L77.4351 156.214L128.916 195.756Z" fill="#9BBDBB"/>
<path d="M75.6031 119.053C74.687 120.214 74.9924 121.985 76.3054 122.992L116.824 154.992C118.107 156 120.489 156.824 122.137 156.824H125.771C127.42 156.824 127.695 156 126.382 154.992L79.603 118.779C78.3206 117.801 76.4886 117.924 75.6031 119.053Z" fill="#933B08"/>
<path d="M131.573 156.824C133.222 156.824 133.496 156 132.183 154.992L85.4046 118.779C84.1222 117.771 82.626 117.496 82.107 118.168C81.5879 118.84 80.4581 118.809 79.6031 118.168C78.7481 117.496 77.313 117.893 76.397 119.054C75.481 120.214 75.7863 121.985 77.0993 122.992L117.618 154.992C118.901 156 121.069 156.824 122.443 156.824C123.817 156.824 124.916 156.824 124.947 156.824C124.947 156.824 126.321 156.824 127.939 156.824H131.573Z" fill="#933B08"/>
<path d="M138.076 145.282C139.817 145.282 140.092 144.427 138.656 143.42L86.8397 106.29C85.4351 105.282 84.0916 104.641 83.8778 104.885C83.6641 105.13 83.2061 105.13 82.8397 104.885C82.4733 104.641 81.374 105.374 80.3664 106.565C79.3587 107.756 79.6946 109.557 81.0992 110.595L125.985 143.42C127.389 144.458 129.008 145.282 129.557 145.282C130.107 145.282 130.595 145.282 130.595 145.282C130.595 145.282 132.03 145.282 133.801 145.282H138.076Z" fill="#933B08"/>
<path d="M143.939 124.458C145.679 123.389 146.199 121.099 145.13 119.359L144.366 118.137C143.298 116.397 141.008 115.847 139.267 116.947L78.4734 154.534C76.7329 155.603 76.9772 156.519 79.023 156.58L87.8169 156.855C89.8627 156.916 91.5421 156.947 91.6031 156.916C91.6337 156.885 93.0993 156 94.8398 154.901L143.939 124.458Z" fill="#F7941E"/>
<path d="M116.061 138.962C137.849 138.962 155.512 122.53 155.512 102.26C155.512 81.9896 137.849 65.5574 116.061 65.5574C94.2734 65.5574 76.6108 81.9896 76.6108 102.26C76.6108 122.53 94.2734 138.962 116.061 138.962Z" fill="#A71917"/>
<path opacity="0.5" d="M113.832 138.962C134.406 138.962 151.084 122.53 151.084 102.26C151.084 81.9896 134.406 65.5574 113.832 65.5574C93.2583 65.5574 76.5801 81.9896 76.5801 102.26C76.5801 122.53 93.2583 138.962 113.832 138.962Z" fill="#F1573E"/>
<path d="M102.901 144.885C125.211 144.885 143.298 126.799 143.298 104.489C143.298 82.1779 125.211 64.0916 102.901 64.0916C80.5902 64.0916 62.5039 82.1779 62.5039 104.489C62.5039 126.799 80.5902 144.885 102.901 144.885Z" fill="#F9ED32"/>
<path d="M102.901 144.885C125.211 144.885 143.298 126.799 143.298 104.489C143.298 82.1779 125.211 64.0916 102.901 64.0916C80.5902 64.0916 62.5039 82.1779 62.5039 104.489C62.5039 126.799 80.5902 144.885 102.901 144.885Z" stroke="#BE1E2D" stroke-width="7.1403" stroke-miterlimit="10"/>
<path d="M106.076 64.0916C105.038 64 104.031 64.1526 103.023 64.2137C122.992 65.8931 138.687 83.2671 138.687 104.489C138.687 125.679 122.992 143.053 103.023 144.733C104.031 144.824 105.069 144.885 106.076 144.855C123.542 144.733 143.664 127.176 143.328 104.458C142.962 82.1984 126.626 66.1679 106.076 64.0916Z" fill="#F15E22"/>
<path opacity="0.3" d="M143.298 104.489C143.298 82.1679 125.221 64.0916 102.901 64.0916V144.885C125.221 144.885 143.298 126.809 143.298 104.489Z" fill="#C49A6C"/>
<path opacity="0.3" d="M112.244 144.122C109.985 144.611 106.259 145.191 102.901 144.886L102.87 149.924L112.244 144.122Z" fill="#754C29"/>
</svg>
